<svg xmlns="http://www.w3.org/2000/svg" viewBox="0 0 25.344 29.317"><g transform="translate(-222.328 -464.774)"><g transform="translate(217 461.652)"><g transform="translate(-57.922 -28.128)"><path d="M66.732,127.25h5.844a2.289,2.289,0,0,1,1.621.682l6.777,6.892a2.316,2.316,0,0,1,.665,1.63v10.672a3.454,3.454,0,0,1-3.417,3.482H66.67a3.366,3.366,0,0,1-2.43-1.027,3.5,3.5,0,0,1-.99-2.455V130.732a3.5,3.5,0,0,1,3.478-3.482Zm11.49,21.857a1.953,1.953,0,0,0,1.917-1.982V136.453a.823.823,0,0,0-.236-.579l-6.776-6.891a.78.78,0,0,0-.552-.233h-5.84a2.005,2.005,0,0,0-1.985,1.986v16.388a1.954,1.954,0,0,0,1.92,1.982Z" transform="translate(0 -90.039)" /><path d="M208.445,137.195H201.73a2.51,2.51,0,0,1-2.48-2.48s0-.006,0-.009V128a.75.75,0,0,1,1.5,0v6.7a1,1,0,0,0,.993.993h6.7a.75.75,0,0,1,0,1.5Z" transform="translate(-127.555 -90.039)"/><path d="M190.222,54.607h-3.791v-1.5h3.791a1.953,1.953,0,0,0,1.917-1.982V40.445a.8.8,0,0,0-.233-.568l-6.779-6.894a.8.8,0,0,0-.56-.233h-5.836a2,2,0,0,0-1.982,1.986v3.224h-1.5V34.732a3.5,3.5,0,0,1,3.478-3.482h5.841a2.307,2.307,0,0,1,1.626.679l6.779,6.894a2.293,2.293,0,0,1,.665,1.621v10.68A3.454,3.454,0,0,1,190.222,54.607Z" transform="translate(-105.046)"/><path d="M320.445,41.195H313.73a2.51,2.51,0,0,1-2.48-2.48s0-.006,0-.009V32a.75.75,0,0,1,1.5,0v6.7a1,1,0,0,0,.993.994h6.7a.75.75,0,0,1,0,1.5Z" transform="translate(-232.601)"/></g></g></g></svg>