<svg xmlns="http://www.w3.org/2000/svg" viewBox="0 0 24.5 27.324"><g transform="translate(-222.75 -465.828)"><g transform="translate(217 461.652)"><g transform="translate(-1132.5 -755.25)"><path d="M11.5-.75a12.25,12.25,0,0,1,8.662,20.912A12.25,12.25,0,0,1,2.838,2.838,12.17,12.17,0,0,1,11.5-.75Zm0,23A10.75,10.75,0,1,0,.75,11.5,10.762,10.762,0,0,0,11.5,22.25Z" transform="translate(1139 763)"/><path d="M7,.75H0V-.75H7Z" transform="translate(1147 760.176)"/><path d="M.75,3.5H-.75V0H.75Z" transform="translate(1150.5 760.176)"/><path d="M-11058.4,3585.447h-6.479a.75.75,0,0,1-.75-.75v-5.489h1.5v4.739h5.729Z" transform="translate(12215.383 -2810.197)"/></g></g></g></svg>