<svg xmlns="http://www.w3.org/2000/svg" viewBox="0 0 86.239 79.217"><g transform="translate(-0.881 -0.385)"><path d="M68.291,53.075A31.686,31.686,0,0,0,71.07,35.836a4.76,4.76,0,0,1-.028-.8A4.308,4.308,0,0,1,74.2,30.985a3.671,3.671,0,0,1,4.608,2.927q.071.49.13.982a39.608,39.608,0,1,1-24.465-32q.459.186.913.383A3.67,3.67,0,0,1,57,8.491a4.308,4.308,0,0,1-4.741,1.982,4.747,4.747,0,0,1-.761-.236A31.687,31.687,0,1,0,68.291,53.075ZM79.5,2.606A3.912,3.912,0,1,1,85.15,8.023L40.389,54.683a4.238,4.238,0,0,1-5.852.057L18.2,38.4a3.912,3.912,0,0,1,5.532-5.532L37.38,46.518Z" transform="translate(0.881 0.385)" fill-rule="evenodd"/></g></svg>