<svg id="_2194105826576" xmlns="http://www.w3.org/2000/svg" width="80.413" height="53.8" viewBox="0 0 80.413 53.8">
  <g id="Group_18" data-name="Group 18" transform="translate(29.288 14.799)">
    <path id="Path_68" data-name="Path 68" d="M1550.758,916.226a.41.41,0,0,0-.248-.116c.059.068-.06.013.1.081A.631.631,0,0,0,1550.758,916.226Z" transform="translate(-1539.175 -906.907)" fill="#b4d6aa" fill-rule="evenodd"/>
    <path id="Path_69" data-name="Path 69" d="M1140.15,564.986l.079-.036.024-.09C1140.153,564.927,1140.2,564.888,1140.15,564.986Z" transform="translate(-1139.566 -564.86)" fill="#b4d6aa" fill-rule="evenodd"/>
    <path id="Path_70" data-name="Path 70" d="M1117.86,721l.151-.152c-.1.045-.009-.037-.1.056C1117.843,720.98,1117.9,720.92,1117.86,721Z" transform="translate(-1117.86 -716.763)" fill="#b4d6aa" fill-rule="evenodd"/>
  </g>
  <g id="Group_19" data-name="Group 19" transform="translate(27.57 16.316)">
    <path id="Path_71" data-name="Path 71" d="M1053.343,708.273c-.192.107-.324.367-.478.409-.068-.05-.188-.178-.261-.247s-.183-.227-.313-.245c.084.264.161.076.181.311.182.034.091.029.184.139l.157.119c.057.03.157-.019.207-.049l.02-.013.105-.113A.721.721,0,0,0,1053.343,708.273Z" transform="translate(-1052.29 -705.951)" fill="#fcfed9" fill-rule="evenodd"/>
    <path id="Path_72" data-name="Path 72" d="M1134.67,657.405c.084.02.075.047.075-.014a.255.255,0,0,1,.182-.073c.013-.2-.025-.132.114-.214l.028-.114c-.1.045-.046.007-.127.087-.026.026-.061.063-.092.1C1134.768,657.268,1134.718,657.29,1134.67,657.405Z" transform="translate(-1132.512 -656.092)" fill="#fcfed9" fill-rule="evenodd"/>
    <path id="Path_73" data-name="Path 73" d="M1129.927,623.014a.284.284,0,0,0-.075-.141c-.068-.073-.036-.012-.1-.105l-.111-.037A.507.507,0,0,0,1129.927,623.014Z" transform="translate(-1127.613 -622.73)" fill="#fcfed9" fill-rule="evenodd"/>
  </g>
  <g id="Group_20" data-name="Group 20" transform="translate(20.648 18.486)">
    <path id="Path_74" data-name="Path 74" d="M881.081,706.712a.937.937,0,0,1-.486-.039c0-.01-.014-.009-.021-.014a1.971,1.971,0,0,1-.621-.067l.061-.716.024-.307a1.32,1.32,0,0,0-.1.561c-.02.2-.1.324-.008.546l1,.107C881.11,706.781,881.042,706.776,881.081,706.712Z" transform="translate(-877.484 -705.57)" fill="#fafcc9" fill-rule="evenodd"/>
    <path id="Path_75" data-name="Path 75" d="M788.878,1067.595l-.183-.121c-.051-.027-.125-.059-.176-.082a1.692,1.692,0,0,1-.351-.165l.033-.187c-.083.043-.077,0-.121.188.174.24.206.036.317.272a.332.332,0,0,1,.351.11Z" transform="translate(-788.08 -1057.569)" fill="#fafcc9" fill-rule="evenodd"/>
    <path id="Path_76" data-name="Path 76" d="M1169.2,1486c.423-.149.111-.133.348-.323.188-.151.113-.3-.1-.362.065.131.081.068.144.206l-.3.343C1169.229,1485.924,1169.218,1485.909,1169.2,1486Z" transform="translate(-1159.215 -1464.89)" fill="#fafcc9" fill-rule="evenodd"/>
    <path id="Path_77" data-name="Path 77" d="M1376.513,1133.875a.443.443,0,0,0-.09-.208.271.271,0,0,1-.067-.207c.133-.087.3-.1.374-.241a1.165,1.165,0,0,0-.45.241c.065.42.007.271.177.375Z" transform="translate(-1360.869 -1122.016)" fill="#fafcc9" fill-rule="evenodd"/>
    <path id="Path_78" data-name="Path 78" d="M1188.75,1321.579c.275-.1.2-.068.333-.3.052-.091-.008.079.034-.085a.488.488,0,0,0-.2.174C1188.845,1321.448,1188.772,1321.467,1188.75,1321.579Z" transform="translate(-1178.252 -1305.061)" fill="#fafcc9" fill-rule="evenodd"/>
  </g>
  <g id="Group_21" data-name="Group 21" transform="translate(1.507 42.006)">
    <path id="Path_79" data-name="Path 79" d="M91.75,1603.8a1.5,1.5,0,0,0,.554,0l-.006-.49a1.108,1.108,0,0,0-.543,0Z" transform="translate(-90.853 -1603.28)" fill="#a8a8a8" fill-rule="evenodd"/>
    <path id="Path_80" data-name="Path 80" d="M57.53,1604l.518,0,.014-.538H57.54Z" transform="translate(-57.53 -1603.455)" fill="#a8a8a8" fill-rule="evenodd"/>
  </g>
  <g id="Group_22" data-name="Group 22" transform="translate(35.994 23.62)">
    <path id="Path_81" data-name="Path 81" d="M1377.191,1393.234c-.053.045-.042-.026-.082.06-.048-.12-.094.34-.059.448,0,.005.021.058.021.062l.008.044a.054.054,0,0,0,0,.011,3.372,3.372,0,0,1,.946.05,6.127,6.127,0,0,0,.937.137c.047-.191.058-.059.086-.185.014-.061,0-.265,0-.347a2.909,2.909,0,0,0,.051-.682c-.029.038-.022.01-.044.078s-.087.863-.145,1.042l-1.762-.227Z" transform="translate(-1376.953 -1379.957)" fill="#ebfce8" fill-rule="evenodd"/>
    <path id="Path_82" data-name="Path 82" d="M1373.82,901.882c.121-.108.071-.122.159-.245a1.634,1.634,0,0,1,.36.145c.123.06.227.109.343.163l-.125.348.161-.148a1.015,1.015,0,0,0,.062-.231c-.409-.177-.134-.122-.352-.214-.322-.136-.192.006-.4-.172a.183.183,0,0,0-.022-.018C1373.9,901.562,1373.842,901.589,1373.82,901.882Z" transform="translate(-1373.82 -901.51)" fill="#ebfce8" fill-rule="evenodd"/>
  </g>
  <g id="Group_23" data-name="Group 23" transform="translate(26.72 19.36)">
    <path id="Path_83" data-name="Path 83" d="M1026.82,1247.7a5.357,5.357,0,0,0,.539.512c.088-.032.072-.038.144-.114a.495.495,0,0,0-.176-.974.953.953,0,0,0-.133.122C1027.1,1247.339,1026.846,1247.573,1026.82,1247.7Z" transform="translate(-1026.637 -1233.806)" fill="#acacac" fill-rule="evenodd"/>
    <path id="Path_84" data-name="Path 84" d="M1197.74,1249.806a3.52,3.52,0,0,0,.065-.785l-.779-.081a6.275,6.275,0,0,0-.066.781A3.565,3.565,0,0,0,1197.74,1249.806Z" transform="translate(-1192.312 -1235.578)" fill="#acacac" fill-rule="evenodd"/>
    <path id="Path_85" data-name="Path 85" d="M1272.26,1214.035l.8.094a4.732,4.732,0,0,0,.071-.809,5.54,5.54,0,0,0-.772-.062Z" transform="translate(-1265.646 -1200.825)" fill="#acacac" fill-rule="evenodd"/>
    <path id="Path_86" data-name="Path 86" d="M1019.83,739.714a.187.187,0,0,0,.085.03l.706.072a3.065,3.065,0,0,0,.059-.765l-.765-.112Z" transform="translate(-1019.83 -738.94)" fill="#acacac" fill-rule="evenodd"/>
  </g>
  <g id="Group_24" data-name="Group 24" transform="translate(32.699 18.6)">
    <path id="Path_87" data-name="Path 87" d="M1248.06,710.1l.2,1.118,1.1-.2a3.031,3.031,0,0,0-.087-.55,1.882,1.882,0,0,0-.121-.556Z" transform="translate(-1248.06 -709.91)" fill="#27b5b8" fill-rule="evenodd"/>
    <path id="Path_88" data-name="Path 88" d="M1326.79,1146.94a3.045,3.045,0,0,0,.37.677,2.406,2.406,0,0,0,.688-.358,5.5,5.5,0,0,0-.369-.689A6.416,6.416,0,0,0,1326.79,1146.94Z" transform="translate(-1324.727 -1135.129)" fill="#27b5b8" fill-rule="evenodd"/>
    <path id="Path_89" data-name="Path 89" d="M1377.65,989.72a2.948,2.948,0,0,0,.7.326,1.846,1.846,0,0,0,.328-.717c-.215-.084-.461-.241-.678-.309A3.176,3.176,0,0,0,1377.65,989.72Z" transform="translate(-1374.255 -981.707)" fill="#27b5b8" fill-rule="evenodd"/>
  </g>
  <g id="Group_25" data-name="Group 25" transform="translate(21.533 19.197)">
    <path id="Path_90" data-name="Path 90" d="M821.87,1125.95a8.091,8.091,0,0,0,1,.472,2.68,2.68,0,0,0,.238-.489c.042-.094.081-.17.122-.261l.085-.2a.134.134,0,0,0-.014-.079,6.66,6.66,0,0,0-.973-.439c-.005.007-.013.008-.015.02l-.221.456A2.913,2.913,0,0,0,821.87,1125.95Z" transform="translate(-821.87 -1114.673)" fill="#58b35a" fill-rule="evenodd"/>
    <path id="Path_91" data-name="Path 91" d="M1392.38,1190.93l.379.731a.727.727,0,0,0,.156.234,5.906,5.906,0,0,0,.964-.518,2.728,2.728,0,0,0-.246-.495c-.086-.155-.18-.353-.271-.482A9.083,9.083,0,0,0,1392.38,1190.93Z" transform="translate(-1377.433 -1178.409)" fill="#58b35a" fill-rule="evenodd"/>
    <path id="Path_92" data-name="Path 92" d="M1190.7,733.275a2.169,2.169,0,0,0,.381.4c.019.018.042.04.066.06l.107.071a1.8,1.8,0,0,0,.522-.577,4.717,4.717,0,0,0-.554-.506A3.163,3.163,0,0,0,1190.7,733.275Z" transform="translate(-1181.036 -732.72)" fill="#58b35a" fill-rule="evenodd"/>
  </g>
  <g id="Group_26" data-name="Group 26" transform="translate(21.947 18.767)">
    <path id="Path_93" data-name="Path 93" d="M1319.92,1273.926a6.666,6.666,0,0,0,1.134.132l.131-1.1-1.128-.15Z" transform="translate(-1307.285 -1258.23)" fill="#74b64c" fill-rule="evenodd"/>
    <path id="Path_94" data-name="Path 94" d="M1247.909,1264.541l0-.166a.259.259,0,0,1-.087-.018c-.106-.041-.07-.037-.107-.062l-.89-.1-.146,1.12a6.115,6.115,0,0,0,1.143.106Z" transform="translate(-1235.964 -1249.845)" fill="#74b64c" fill-rule="evenodd"/>
    <path id="Path_95" data-name="Path 95" d="M837.67,997.31a1.865,1.865,0,0,0,.722.3c.052-.125.278-.586.295-.683a2.339,2.339,0,0,0-.723-.31A3.083,3.083,0,0,0,837.67,997.31Z" transform="translate(-837.67 -989.273)" fill="#74b64c" fill-rule="evenodd"/>
    <path id="Path_96" data-name="Path 96" d="M884.9,837.521a5.027,5.027,0,0,0,.34.66,2.4,2.4,0,0,0,.7-.373,3.546,3.546,0,0,0-.354-.659c-.152,0-.223.08-.347.153-.052.031-.116.066-.163.091-.03.017-.053.027-.081.046C884.917,837.49,884.953,837.46,884.9,837.521Z" transform="translate(-883.663 -833.984)" fill="#74b64c" fill-rule="evenodd"/>
    <path id="Path_97" data-name="Path 97" d="M1368.435,906.6c-.008.157-.139.251-.145.451a2.116,2.116,0,0,0,.687.314l.2-.354.124-.348c-.116-.054-.22-.1-.343-.163a1.631,1.631,0,0,0-.36-.145C1368.506,906.474,1368.556,906.487,1368.435,906.6Z" transform="translate(-1354.388 -901.371)" fill="#74b64c" fill-rule="evenodd"/>
    <path id="Path_98" data-name="Path 98" d="M952.3,1215.775a5.055,5.055,0,0,0,.12.773,3.826,3.826,0,0,0,.778-.133,3.928,3.928,0,0,0-.136-.766Z" transform="translate(-949.298 -1202.567)" fill="#74b64c" fill-rule="evenodd"/>
    <path id="Path_99" data-name="Path 99" d="M1108.781,716.429l-.151.152c-.07.078-.256.236-.248.3a4.971,4.971,0,0,0,.54.52l.08-.057a.88.88,0,0,0,.068-.056l.394-.439a2.583,2.583,0,0,0-.409-.42c-.125-.1-.074-.089-.165-.117C1108.834,716.36,1108.831,716.378,1108.781,716.429Z" transform="translate(-1101.289 -716.31)" fill="#74b64c" fill-rule="evenodd"/>
  </g>
  <g id="Group_27" data-name="Group 27" transform="translate(19.718 23.074)">
    <path id="Path_100" data-name="Path 100" d="M752.6,881.239a4.328,4.328,0,0,0,.544.97,9.781,9.781,0,0,0,.955-.52,6.1,6.1,0,0,0-.537-.988,3.032,3.032,0,0,0-.479.256A4.728,4.728,0,0,0,752.6,881.239Z" transform="translate(-752.6 -880.7)" fill="#2b85c3" fill-rule="evenodd"/>
    <path id="Path_101" data-name="Path 101" d="M883.476,1209.186a7.885,7.885,0,0,0,.192,1.089l1.086-.2a4.636,4.636,0,0,0-.154-.956s-.017-.073-.019-.078a.178.178,0,0,0-.034-.073A5.858,5.858,0,0,0,883.476,1209.186Z" transform="translate(-880.045 -1200.369)" fill="#2b85c3" fill-rule="evenodd"/>
  </g>
  <g id="Group_28" data-name="Group 28" transform="translate(19.018 16.282)">
    <path id="Path_102" data-name="Path 102" d="M725.87,1173.574l.629.268c.089.047.205.106.3.144.134.054.187.124.346.133a5.421,5.421,0,0,0,.455-.923.832.832,0,0,0,.128-.356,9.32,9.32,0,0,0-1.3-.59l-.429.963C725.943,1173.354,725.872,1173.409,725.87,1173.574Z" transform="translate(-725.87 -1157.819)" fill="#ccd636" fill-rule="evenodd"/>
    <path id="Path_103" data-name="Path 103" d="M817.31,846.167a1.146,1.146,0,0,0,.237.494c.1.157.162.32.272.465a2.116,2.116,0,0,0,.522-.247c.6-.351.569-.165.083-.964-.048-.079-.075-.175-.125-.246A2.421,2.421,0,0,0,817.31,846.167Z" transform="translate(-814.914 -839.792)" fill="#ccd636" fill-rule="evenodd"/>
    <path id="Path_104" data-name="Path 104" d="M1460.96,980.666a6.425,6.425,0,0,0,1,.451,4.947,4.947,0,0,0,.424-1.021,9.851,9.851,0,0,0-.989-.456A5.068,5.068,0,0,0,1460.96,980.666Z" transform="translate(-1441.701 -970.255)" fill="#ccd636" fill-rule="evenodd"/>
    <path id="Path_105" data-name="Path 105" d="M898.026,1281.04a6.06,6.06,0,0,0,.214,1.079,2.294,2.294,0,0,0,.529-.095c.075-.019.214-.042.272-.052a.607.607,0,0,0,.275-.075,4.846,4.846,0,0,0-.227-1.093c-.016,0-.435.088-.528.106A2.639,2.639,0,0,0,898.026,1281.04Z" transform="translate(-893.515 -1263.529)" fill="#ccd636" fill-rule="evenodd"/>
    <path id="Path_106" data-name="Path 106" d="M1146.935,1290.623c.022-.113.095-.131.167-.215a.487.487,0,0,1,.2-.174.667.667,0,0,0,.067-.121.613.613,0,0,0-.19-.183c-.14-.106-.252-.265-.4-.37-.338-.246-.165-.272-.8.4a.641.641,0,0,0-.175.215,3.786,3.786,0,0,0,.615.6c.052.04,0,.006.051.047.181.142.222.038.307-.068C1146.845,1290.68,1146.871,1290.684,1146.935,1290.623Z" transform="translate(-1134.807 -1271.9)" fill="#ccd636" fill-rule="evenodd"/>
    <path id="Path_107" data-name="Path 107" d="M1440.27,868.412a4.249,4.249,0,0,0,.485.259,2,2,0,0,0,.549.2,4.568,4.568,0,0,0,.4-1.023l-.477-.226a1.265,1.265,0,0,0-.5-.2Z" transform="translate(-1421.553 -860.985)" fill="#ccd636" fill-rule="evenodd"/>
    <path id="Path_108" data-name="Path 108" d="M993.03,1326.208a.287.287,0,0,1-.13-.086.291.291,0,0,1-.08-.127,2.41,2.41,0,0,1-.449-.4c-.073-.08-.071-.1-.219-.082-.142.24-.678.679-.667.781a2.945,2.945,0,0,0,.381.381c.076.076.363.368.445.352l.558-.591C992.962,1326.344,992.985,1326.358,993.03,1326.208Z" transform="translate(-984.525 -1307.063)" fill="#ccd636" fill-rule="evenodd"/>
    <path id="Path_109" data-name="Path 109" d="M1045.024,668.722l.121.037.044.115-.008.024c.13.018.231.167.313.245s.193.2.261.247c.154-.042.286-.3.479-.409.081-.283.526-.225.121-.572-.1-.084-.117-.125-.2-.211a1.973,1.973,0,0,0-.427-.358c-.313.351-.416.405-.734.787Z" transform="translate(-1036.629 -666.624)" fill="#ccd636" fill-rule="evenodd"/>
    <path id="Path_110" data-name="Path 110" d="M1311.69,693.046l.186,1.091a2.887,2.887,0,0,0,.541-.071l.392-.074c.148-.018.2-.03.145-.326-.015-.079-.041-.143-.058-.248a2.269,2.269,0,0,0-.12-.558Z" transform="translate(-1296.341 -690.989)" fill="#ccd636" fill-rule="evenodd"/>
    <path id="Path_111" data-name="Path 111" d="M1379.53,1125.158c-.076.139-.241.153-.374.241a.271.271,0,0,0,.067.207.443.443,0,0,1,.09.208,1.359,1.359,0,0,1,.154.249.908.908,0,0,1,.074.154.451.451,0,0,0,.113.147,4.6,4.6,0,0,0,.955-.486c0-.167-.037-.142-.1-.247-.3-.505-.247-.873-.7-.593A.822.822,0,0,1,1379.53,1125.158Z" transform="translate(-1362.039 -1111.749)" fill="#ccd636" fill-rule="evenodd"/>
    <path id="Path_112" data-name="Path 112" d="M791.482,1036.852l-.032.187a1.683,1.683,0,0,0,.351.165c.051.023.125.055.176.082l.183.121c.142,0,.078.058.27.081l.466-.986a4.9,4.9,0,0,0-1.038-.462C791.74,1036.307,791.607,1036.6,791.482,1036.852Z" transform="translate(-789.732 -1025.177)" fill="#ccd636" fill-rule="evenodd"/>
    <path id="Path_113" data-name="Path 113" d="M1099.594,621.483c-.076.161-.011.127-.119.207a.763.763,0,0,0-.152.134c-.26.316-.239.09-.184.328a.5.5,0,0,0-.085.007.175.175,0,0,0-.084.039l.013.12c.056.1.211.192.323.329.051.063.323.324.387.315s.1-.09.151-.134l.06-.042c.048-.115.1-.137.18-.23.031-.035.065-.073.092-.1.081-.08.029-.042.127-.087.031-.078.078-.074.125-.173-.041-.191-.336-.291-.369-.44a.506.506,0,0,1-.287-.284c-.072-.01-.021-.033-.169-.034Z" transform="translate(-1089.195 -621.44)" fill="#ccd636" fill-rule="evenodd"/>
  </g>
  <g id="Group_29" data-name="Group 29" transform="translate(18.697 20.339)">
    <path id="Path_114" data-name="Path 114" d="M713.61,797.046c.115.3.53.894.7,1.258.282-.089.991-.591,1.276-.686a11.583,11.583,0,0,0-.724-1.268Z" transform="translate(-713.61 -795.824)" fill="#1a3a6b" fill-rule="evenodd"/>
    <path id="Path_115" data-name="Path 115" d="M1405.88,1033.146c.144.336.377.643.522.989a6.134,6.134,0,0,0,1.006-.553,8.959,8.959,0,0,0-.548-.962Z" transform="translate(-1387.743 -1025.904)" fill="#1a3a6b" fill-rule="evenodd"/>
    <path id="Path_116" data-name="Path 116" d="M848.73,1079.276a2.978,2.978,0,0,0,.737.327l.315-.725-.723-.317A4.271,4.271,0,0,0,848.73,1079.276Z" transform="translate(-845.19 -1070.641)" fill="#1a3a6b" fill-rule="evenodd"/>
    <path id="Path_117" data-name="Path 117" d="M944.66,777.074l.776.09a3.736,3.736,0,0,0,.1-.8l-.8-.078Z" transform="translate(-938.606 -776.29)" fill="#1a3a6b" fill-rule="evenodd"/>
    <path id="Path_118" data-name="Path 118" d="M1108.82,1262.471l.561.53a5.316,5.316,0,0,0,.538-.562,3.189,3.189,0,0,0-.57-.539Z" transform="translate(-1098.465 -1249.177)" fill="#1a3a6b" fill-rule="evenodd"/>
  </g>
  <g id="Group_30" data-name="Group 30" transform="translate(20.782 14.704)">
    <path id="Path_119" data-name="Path 119" d="M1151.65,562.238a9.5,9.5,0,0,0,1.034.991,11.945,11.945,0,0,0,.979-1.023,8.448,8.448,0,0,0-1.055-1,6.141,6.141,0,0,1-.473.511C1151.985,561.884,1151.791,562.056,1151.65,562.238Z" transform="translate(-1142.259 -561.21)" fill="#ababab" fill-rule="evenodd"/>
    <path id="Path_120" data-name="Path 120" d="M793.221,697.345l1.429.158.154-1.435-1.447-.157A11.483,11.483,0,0,0,793.221,697.345Z" transform="translate(-793.216 -692.381)" fill="#ababab" fill-rule="evenodd"/>
    <path id="Path_121" data-name="Path 121" d="M1050.8,1290.7a2.839,2.839,0,0,0,.385.387,4.147,4.147,0,0,0,.419.378,2.5,2.5,0,0,0,.382-.383c.081-.09.341-.348.376-.414a4.162,4.162,0,0,0-.822-.762A7.937,7.937,0,0,0,1050.8,1290.7Z" transform="translate(-1044.051 -1270.818)" fill="#ababab" fill-rule="evenodd"/>
    <path id="Path_122" data-name="Path 122" d="M1322.67,1209.18a6.879,6.879,0,0,0,1.117.108,6.18,6.18,0,0,0,.118-1.107,9.285,9.285,0,0,0-1.108-.1Z" transform="translate(-1308.798 -1191.123)" fill="#ababab" fill-rule="evenodd"/>
    <path id="Path_123" data-name="Path 123" d="M1408.48,934.788c.241.059.866.446,1.023.443a5.729,5.729,0,0,0,.446-1.022c-.154-.063-.325-.149-.475-.222a2.01,2.01,0,0,0-.53-.216,4.514,4.514,0,0,0-.233.476A2.95,2.95,0,0,0,1408.48,934.788Z" transform="translate(-1392.36 -924.009)" fill="#ababab" fill-rule="evenodd"/>
    <path id="Path_124" data-name="Path 124" d="M811.61,1201.547a3.833,3.833,0,0,0,.487.24c.173.079.369.17.522.231a6.74,6.74,0,0,0,.481-1.012,6.513,6.513,0,0,0-1.024-.456Z" transform="translate(-811.128 -1183.799)" fill="#ababab" fill-rule="evenodd"/>
    <path id="Path_125" data-name="Path 125" d="M1218.9,1327.892l-.152,1.1,1.122.137.139-1.13A9.617,9.617,0,0,0,1218.9,1327.892Z" transform="translate(-1207.601 -1307.798)" fill="#ababab" fill-rule="evenodd"/>
    <path id="Path_126" data-name="Path 126" d="M1394.22,772.706a6.093,6.093,0,0,0,.2,1.072c.05.05.19.014.254,0s.178-.032.275-.051l.561-.108-.188-1.11Z" transform="translate(-1378.473 -766.974)" fill="#ababab" fill-rule="evenodd"/>
    <path id="Path_127" data-name="Path 127" d="M844.51,911.09c.1.142.3.522.38.68.258-.051.466-.271.716-.371l-.289-.505c-.06-.107-.034-.1-.118-.174C845.055,910.763,844.677,911.007,844.51,911.09Z" transform="translate(-843.166 -901.563)" fill="#ababab" fill-rule="evenodd"/>
    <path id="Path_128" data-name="Path 128" d="M893.92,1155.162l.131.768a2.408,2.408,0,0,0,.773-.146,3.615,3.615,0,0,0-.146-.754Z" transform="translate(-891.281 -1139.472)" fill="#ababab" fill-rule="evenodd"/>
    <path id="Path_129" data-name="Path 129" d="M1367.3,1073.646a2.359,2.359,0,0,0,.394.679l.631-.344.023-.016a7.076,7.076,0,0,0-.343-.695l-.683.359Z" transform="translate(-1352.259 -1059.854)" fill="#ababab" fill-rule="evenodd"/>
    <path id="Path_130" data-name="Path 130" d="M1271.49,772.9l.121.764.778-.145-.125-.758A2.22,2.22,0,0,0,1271.49,772.9Z" transform="translate(-1258.959 -767.214)" fill="#ababab" fill-rule="evenodd"/>
  </g>
  <g id="Group_31" data-name="Group 31" transform="translate(33.571 15.894)">
    <path id="Path_131" data-name="Path 131" d="M1396.312,1268.347a7.484,7.484,0,0,0-.156,1.433l1.386.165a8.283,8.283,0,0,0,.187-1.444A12.709,12.709,0,0,0,1396.312,1268.347Z" transform="translate(-1393.139 -1251.007)" fill="#1b3c71" fill-rule="evenodd"/>
    <path id="Path_132" data-name="Path 132" d="M1281.32,606.9l.257,1.435,1.421-.262-.249-1.426Z" transform="translate(-1281.32 -606.65)" fill="#1b3c71" fill-rule="evenodd"/>
  </g>
  <g id="Group_32" data-name="Group 32" transform="translate(19.333 14.713)">
    <path id="Path_133" data-name="Path 133" d="M1541.03,811.641l1.644.766.762-1.634c-.074-.058-1.5-.733-1.617-.762Z" transform="translate(-1519.988 -803.501)" fill="#283876" fill-rule="evenodd"/>
    <path id="Path_134" data-name="Path 134" d="M1022.08,562.61c.179.172.313.293.5.478l.517.5c.141-.119.363-.348.506-.5l.5-.545a14.1,14.1,0,0,0-1.041-.987A8.753,8.753,0,0,0,1022.08,562.61Z" transform="translate(-1014.634 -561.56)" fill="#283876" fill-rule="evenodd"/>
    <path id="Path_135" data-name="Path 135" d="M737.89,991.269l1.02.446.474-1.038a9.089,9.089,0,0,0-1.043-.437A7.044,7.044,0,0,0,737.89,991.269Z" transform="translate(-737.89 -979.009)" fill="#283876" fill-rule="evenodd"/>
    <path id="Path_136" data-name="Path 136" d="M1442.3,1087.814a4.3,4.3,0,0,0,.26.494,4.7,4.7,0,0,0,.275.484,6.145,6.145,0,0,0,.983-.537l-.451-.85a.257.257,0,0,0-.036-.059.226.226,0,0,0-.05-.056A9.366,9.366,0,0,0,1442.3,1087.814Z" transform="translate(-1423.844 -1073.516)" fill="#283876" fill-rule="evenodd"/>
    <path id="Path_137" data-name="Path 137" d="M960.935,1263.321a9.876,9.876,0,0,0,.195,1.112c.283.01.781-.158,1.109-.193l-.2-1.106C961.781,1263.113,961.25,1263.3,960.935,1263.321Z" transform="translate(-955.091 -1244.751)" fill="#283876" fill-rule="evenodd"/>
  </g>
  <g id="Group_33" data-name="Group 33" transform="translate(17.882 15.101)">
    <path id="Path_138" data-name="Path 138" d="M1544.66,1108.5a7.371,7.371,0,0,0,.416.791l.437.774a14.392,14.392,0,0,0,1.564-.863c-.043-.21-.687-1.206-.816-1.549a4.04,4.04,0,0,0-.832.41A7.022,7.022,0,0,0,1544.66,1108.5Z" transform="translate(-1522.072 -1093.731)" fill="#2886c4" fill-rule="evenodd"/>
    <path id="Path_139" data-name="Path 139" d="M811.164,1369.291a14.456,14.456,0,0,0,.35,1.774l1.751-.341-.338-1.753A17.9,17.9,0,0,0,811.164,1369.291Z" transform="translate(-807.793 -1348.202)" fill="#2886c4" fill-rule="evenodd"/>
    <path id="Path_140" data-name="Path 140" d="M1369.99,576.685l.31,1.769,1.749-.3a.092.092,0,0,1,.008-.034s.007-.019.008-.026c.012-.149.009.072,0-.053l-.3-1.658Z" transform="translate(-1351.978 -576.38)" fill="#2886c4" fill-rule="evenodd"/>
    <path id="Path_141" data-name="Path 141" d="M682.51,1051.947a13.886,13.886,0,0,0,1.3.591,10.841,10.841,0,0,0,.6-1.293,9.57,9.57,0,0,0-1.306-.585A10.657,10.657,0,0,0,682.51,1051.947Z" transform="translate(-682.51 -1038.234)" fill="#2886c4" fill-rule="evenodd"/>
    <path id="Path_142" data-name="Path 142" d="M1378.84,845.321a5.759,5.759,0,0,0,1.017.471c.155-.309.332-.648.459-.982l-.1-.077c-.029-.016-.089-.038-.133-.058a2.907,2.907,0,0,0-.806-.333C1379.176,844.6,1378.879,845.123,1378.84,845.321Z" transform="translate(-1360.596 -837.32)" fill="#2886c4" fill-rule="evenodd"/>
    <path id="Path_143" data-name="Path 143" d="M1104.92,1340.508a5.661,5.661,0,0,0,.593.581c.04.039.061.06.1.095a.29.29,0,0,0,.132.089c.126-.117.268-.264.38-.387l.366-.409a6.6,6.6,0,0,0-.81-.766Z" transform="translate(-1093.853 -1319.711)" fill="#2886c4" fill-rule="evenodd"/>
    <path id="Path_144" data-name="Path 144" d="M986.74,652.058l.021-.116c-.068-.069-.058.044-.065-.158,0-.079.086-.336.026-.416a1.775,1.775,0,0,0-.979-.064c-.032.147.013.119-.005.288a1.8,1.8,0,0,0-.009.223c0,.164-.083.285-.035.382a1.9,1.9,0,0,0,.458.036c.255,0,.226.105.439.05C986.657,652.166,986.61,652.071,986.74,652.058Z" transform="translate(-977.734 -649.301)" fill="#2886c4" fill-rule="evenodd"/>
  </g>
  <g id="Group_34" data-name="Group 34" transform="translate(16.105 16.175)">
    <path id="Path_145" data-name="Path 145" d="M614.71,828.828a9.5,9.5,0,0,0,.9,1.573c.223-.1.55-.312.766-.441a5.526,5.526,0,0,0,.766-.452c-.061-.153-.807-1.456-.894-1.537C616.118,828,614.939,828.7,614.71,828.828Z" transform="translate(-614.71 -822.452)" fill="#23b4bc" fill-rule="evenodd"/>
    <path id="Path_146" data-name="Path 146" d="M624.52,1128.482l1.624.732c.121-.251.7-1.453.726-1.625l-.184-.118c-.082-.039-.129-.063-.2-.093l-1.23-.548A13.485,13.485,0,0,0,624.52,1128.482Z" transform="translate(-624.263 -1113.481)" fill="#23b4bc" fill-rule="evenodd"/>
    <path id="Path_147" data-name="Path 147" d="M1161.86,1380.982a10.386,10.386,0,0,0,1.054.97,14.108,14.108,0,0,0,.965-1.034c-.154-.258-.8-.72-1.027-.989A10.694,10.694,0,0,0,1161.86,1380.982Z" transform="translate(-1147.525 -1359.95)" fill="#23b4bc" fill-rule="evenodd"/>
    <path id="Path_148" data-name="Path 148" d="M1463.33,1157.261a10.043,10.043,0,0,0,.663,1.282,3.423,3.423,0,0,0,.666-.338,3.047,3.047,0,0,0,.6-.353,9.97,9.97,0,0,0-.666-1.223A11.143,11.143,0,0,0,1463.33,1157.261Z" transform="translate(-1441.096 -1142.501)" fill="#23b4bc" fill-rule="evenodd"/>
    <path id="Path_149" data-name="Path 149" d="M1459.08,783.21a7.867,7.867,0,0,0,1.335.61c.1-.307.555-1.106.577-1.275a7.185,7.185,0,0,0-1.307-.605Z" transform="translate(-1436.957 -777.626)" fill="#23b4bc" fill-rule="evenodd"/>
    <path id="Path_150" data-name="Path 150" d="M895.26,618.785a12.82,12.82,0,0,0,1.455.122c.01-.241.043-.476.066-.7.014-.131.028-.219.038-.347l.024-.312c-.023-.14-.552-.127-.692-.14a5.08,5.08,0,0,0-.738-.061Z" transform="translate(-887.909 -617.348)" fill="#23b4bc" fill-rule="evenodd"/>
    <path id="Path_151" data-name="Path 151" d="M1501.93,1033.363c.016.1.592,1.14.664,1.244a8.245,8.245,0,0,0,1.275-.669c-.11-.309-.6-1.05-.657-1.247a2.689,2.689,0,0,0-.65.322C1502.373,1033.122,1502.109,1033.233,1501.93,1033.363Z" transform="translate(-1478.685 -1021.808)" fill="#23b4bc" fill-rule="evenodd"/>
    <path id="Path_152" data-name="Path 152" d="M1292.2,1346.514l1.417.174.184-1.432-1.447-.186A10.819,10.819,0,0,0,1292.2,1346.514Z" transform="translate(-1274.441 -1326.003)" fill="#23b4bc" fill-rule="evenodd"/>
    <path id="Path_153" data-name="Path 153" d="M1386.76,683.15l.242,1.427,1.426-.248c0-.111-.229-1.374-.253-1.4A10.434,10.434,0,0,0,1386.76,683.15Z" transform="translate(-1366.532 -681.203)" fill="#23b4bc" fill-rule="evenodd"/>
    <path id="Path_154" data-name="Path 154" d="M915.17,1352.589a10.283,10.283,0,0,0,.265,1.39c.029.016.008.023.072.027l1.323-.283a14.04,14.04,0,0,0-.249-1.393Z" transform="translate(-907.298 -1333.073)" fill="#23b4bc" fill-rule="evenodd"/>
    <path id="Path_155" data-name="Path 155" d="M760.213,1104.242a7.818,7.818,0,0,0,1.019.434l.447-1a5.735,5.735,0,0,0-1.025-.456,2.184,2.184,0,0,0-.242.5A1.54,1.54,0,0,0,760.213,1104.242Z" transform="translate(-756.401 -1090.49)" fill="#23b4bc" fill-rule="evenodd"/>
    <path id="Path_156" data-name="Path 156" d="M1149.27,672.063a5.111,5.111,0,0,0,.778.772,2.249,2.249,0,0,0,.4-.376,1.962,1.962,0,0,0,.377-.428,8.182,8.182,0,0,0-.8-.761A9.891,9.891,0,0,0,1149.27,672.063Z" transform="translate(-1135.265 -669.857)" fill="#23b4bc" fill-rule="evenodd"/>
    <path id="Path_157" data-name="Path 157" d="M789.4,935.844a9.679,9.679,0,0,0,.538.949,6.333,6.333,0,0,0,.98-.534l-.526-.959A4.407,4.407,0,0,0,789.4,935.844Z" transform="translate(-784.823 -926.97)" fill="#23b4bc" fill-rule="evenodd"/>
    <path id="Path_158" data-name="Path 158" d="M883.409,772.551a2.416,2.416,0,0,0,.7.039,6.906,6.906,0,0,0,.072-.7c.03-.3.173-.478-.263-.4a1.7,1.7,0,0,1-.415-.026,1.9,1.9,0,0,0-.193,0c-.332.009-.128.025-.237.686C882.979,772.71,883.333,772.313,883.409,772.551Z" transform="translate(-876.026 -767.42)" fill="#23b4bc" fill-rule="evenodd"/>
  </g>
  <g id="Group_35" data-name="Group 35" transform="translate(17.754 12.68)">
    <path id="Path_159" data-name="Path 159" d="M791.807,590.361a12.838,12.838,0,0,0-.169,1.748l1.751.182a14.664,14.664,0,0,0,.209-1.788,8.8,8.8,0,0,0-.879-.107l-.67-.068C791.8,590.306,791.857,590.329,791.807,590.361Z" transform="translate(-788.648 -587.533)" fill="#73b947" fill-rule="evenodd"/>
    <path id="Path_160" data-name="Path 160" d="M1081.352,486.2c.046-.1,0-.059.1-.126.046-.027.769-.8.824-.887A16.408,16.408,0,0,0,1081,483.95a11.327,11.327,0,0,0-.923.951.8.8,0,0,1-.153.161,1.062,1.062,0,0,0-.075.086.566.566,0,0,0-.075.1.384.384,0,0,0,.14.162c.073.064.109.1.165.156.121.114.2.19.329.307l.639.6c.1-.046.082-.026.178-.142A.9.9,0,0,1,1081.352,486.2Z" transform="translate(-1069.234 -483.95)" fill="#73b947" fill-rule="evenodd"/>
    <path id="Path_161" data-name="Path 161" d="M1381.323,1360.944l-.042.489,1.762.227c.059-.179.12-.964.145-1.042s.015-.04.044-.078a3.146,3.146,0,0,1,.038-.672,15.875,15.875,0,0,0-1.786-.194Z" transform="translate(-1362.844 -1336.727)" fill="#73b947" fill-rule="evenodd"/>
    <path id="Path_162" data-name="Path 162" d="M1032.76,1383.948a7.061,7.061,0,0,0,1.067.965c.1-.138.329-.36.458-.494a4.6,4.6,0,0,0,.472-.535c-.035-.1-.017-.069-.1-.142a9.149,9.149,0,0,0-.938-.832,8.915,8.915,0,0,0-.727.757C1032.89,1383.772,1032.8,1383.835,1032.76,1383.948Z" transform="translate(-1023.456 -1359.357)" fill="#73b947" fill-rule="evenodd"/>
    <path id="Path_163" data-name="Path 163" d="M677.63,920.719a9.691,9.691,0,0,0,.658,1.235c.15.02.442-.189.644-.3.185-.1.442-.269.636-.353a9.057,9.057,0,0,0-.706-1.27,4.132,4.132,0,0,0-.607.338C678.048,920.5,677.862,920.58,677.63,920.719Z" transform="translate(-677.63 -908.605)" fill="#73b947" fill-rule="evenodd"/>
    <path id="Path_164" data-name="Path 164" d="M1502.185,905.421a.626.626,0,0,1-.15-.036c-.158-.068-.04-.012-.1-.081-.184-.063-.529-.326-.736-.287a12.487,12.487,0,0,0-.571,1.27,3.74,3.74,0,0,0,.624.3,2.272,2.272,0,0,0,.688.283,10.258,10.258,0,0,0,.571-1.285Z" transform="translate(-1479.067 -893.982)" fill="#73b947" fill-rule="evenodd"/>
    <path id="Path_165" data-name="Path 165" d="M808.877,1278.9a3.95,3.95,0,0,0,.116.711,3.477,3.477,0,0,0,.166.7l1.366-.259c.019-.036.042-.023.02-.153l-.264-1.264C810.1,1278.641,809.095,1278.848,808.877,1278.9Z" transform="translate(-805.439 -1257.819)" fill="#73b947" fill-rule="evenodd"/>
    <path id="Path_166" data-name="Path 166" d="M1209.575,638.177a.272.272,0,0,1-.144.155c-.061.089-.057.036-.092.149a4.283,4.283,0,0,0,.391.379c.461.418.3.526.8-.021.129-.143.3-.251.356-.422a1.252,1.252,0,0,0-.172-.19l-.6-.557a.953.953,0,0,0-.274.249A1.832,1.832,0,0,1,1209.575,638.177Z" transform="translate(-1195.409 -633.643)" fill="#73b947" fill-rule="evenodd"/>
    <path id="Path_167" data-name="Path 167" d="M1325.19,765.459a10.348,10.348,0,0,0,.182,1.1l1.1-.2-.177-1.074Z" transform="translate(-1308.224 -757.909)" fill="#73b947" fill-rule="evenodd"/>
    <path id="Path_168" data-name="Path 168" d="M955.09,712.359c.072-.094.177-.026.273-.006l.527.047c.031-.127.037-.075.058-.184a6.819,6.819,0,0,1,.084-.765c-.007-.005-.017-.022-.021-.016l-.15-.133a5.317,5.317,0,0,0-.9-.073l-.124,1.109Z" transform="translate(-947.577 -705.272)" fill="#73b947" fill-rule="evenodd"/>
  </g>
  <g id="Group_36" data-name="Group 36" transform="translate(4.178 0.965)">
    <path id="Path_169" data-name="Path 169" d="M360.53,105.641v8.438h.669l.292,0v-8.458l-.961-.016Z" transform="translate(-355.262 -103.798)" fill="#a5a5a5" fill-rule="evenodd"/>
    <path id="Path_170" data-name="Path 170" d="M1915.271,1608.253h.517l.006-4.634-.524-.008Z" transform="translate(-1869.268 -1562.56)" fill="#a5a5a5" fill-rule="evenodd"/>
    <path id="Path_171" data-name="Path 171" d="M166.84,1913.6l.653,0-.007-3.7-.646,0Z" transform="translate(-166.647 -1860.826)" fill="#a5a5a5" fill-rule="evenodd"/>
    <path id="Path_172" data-name="Path 172" d="M1808.14,37.753a3.341,3.341,0,0,0,.894-.017l.013-.865a4.151,4.151,0,0,0-.9-.018Z" transform="translate(-1764.944 -36.837)" fill="#a5a5a5" fill-rule="evenodd"/>
    <path id="Path_173" data-name="Path 173" d="M2525.653,466.168l.907,0,0-.912h-.907Z" transform="translate(-2463.656 -454.035)" fill="#a5a5a5" fill-rule="evenodd"/>
    <path id="Path_174" data-name="Path 174" d="M159.46,1804.086H160l.01-.545-.537.007Z" transform="translate(-159.46 -1757.252)" fill="#a5a5a5" fill-rule="evenodd"/>
    <path id="Path_175" data-name="Path 175" d="M194.391,1804.282h.529l.006-.542h-.537Z" transform="translate(-193.475 -1757.447)" fill="#a5a5a5" fill-rule="evenodd"/>
    <path id="Path_176" data-name="Path 176" d="M1311.682,1604.113l.541.014,0-.523-.545-.014Z" transform="translate(-1281.492 -1562.541)" fill="#a5a5a5" fill-rule="evenodd"/>
  </g>
  <g id="Group_37" data-name="Group 37">
    <path id="Path_177" data-name="Path 177" d="M2237.57,623.556a7.344,7.344,0,0,1,.215-2.151c.021-.078.059-.213.079-.287a6.577,6.577,0,0,1,1.269-2.311,5.965,5.965,0,0,1,4.324-2.038c4.688-.257,7.67,4.476,6.122,8.881a6.117,6.117,0,0,1-8.166,3.574,5.975,5.975,0,0,1-1.906-1.258A6.58,6.58,0,0,1,2237.57,623.556Zm17.163.293v-1.292c-.037-.091-.1-.955-.137-1.169-.061-.351-.148-.728-.238-1.088a10.472,10.472,0,0,0-3.039-4.946,10.58,10.58,0,0,0-3.307-2.017,11.972,11.972,0,0,0-6.922-.451,10.872,10.872,0,0,0-3.687,1.6c-.281.19-.534.391-.763.58a10.846,10.846,0,0,0-1.341,1.311,11.519,11.519,0,0,0-1.1,1.577,10.531,10.531,0,0,0-1.376,5.282,10.356,10.356,0,0,0,6.259,9.69,12.025,12.025,0,0,0,8.911.167,10.6,10.6,0,0,0,5.611-5.056,9.945,9.945,0,0,0,.985-3.011Z" transform="translate(-2174.32 -596.529)" fill="#a6a6a6" fill-rule="evenodd"/>
    <path id="Path_178" data-name="Path 178" d="M1599.658,629.854c.008,0,.02,0,.024.008s.018.006.025.007a.765.765,0,0,0,.089.007c.05,0,.11,0,.161,0h6.637a2.086,2.086,0,0,0,.927-.475c.3-.193.564-.376.858-.55a8.253,8.253,0,0,1,.881-.548,2.9,2.9,0,0,1-.4.427l-3.615,3.629c-.067.064-.1.1-.19.192l-1.021,1.023c-.2.217-1.045,1.085-1.213,1.2.02.245.642,2.727.7,2.92,2.011,0,5.382-.277,5.87,2.141a2.474,2.474,0,0,1-2.3,2.983,5.848,5.848,0,0,1-4.149-1.127,10.226,10.226,0,0,1-1.065-.946,2.184,2.184,0,0,0-.328-.34l-1.564,1.464c-.265.266-1.446,1.328-1.55,1.5a10.073,10.073,0,0,0,10.118,3.337,6.552,6.552,0,0,0,4.37-9.894,5.339,5.339,0,0,0-1.884-1.6l-.813-.363a8.416,8.416,0,0,0-1.846-.483c.055-.112,1.729-1.674,1.928-1.866.55-.53,1.809-1.762,2.288-2.182.141-.123.223-.2.328-.308.224-.222.425-.4.642-.621v-3.406l-13.931-.009c-.042.826,0,2.41,0,3.383,0,.085,0,.17,0,.255Z" transform="translate(-1556.561 -609.579)" fill="#a6a6a6" fill-rule="evenodd"/>
    <path id="Path_179" data-name="Path 179" d="M6.318,619.087,9.053,621.3a1.746,1.746,0,0,0,.431.3,5.87,5.87,0,0,0,.479-.544,5.6,5.6,0,0,1,3.066-2.134c1.754-.336,3.518.6,3.428,2.7a4.176,4.176,0,0,1-1.34,2.835,22.783,22.783,0,0,1-2.177,1.969c-.2.155-.381.317-.565.457l-1.434,1.182c-.113.1-.177.148-.3.247L8.065,630.43c-.092.078-.177.148-.283.23l-1.689,1.377a6.864,6.864,0,0,0-.062,1.824l.026,1.8c.19.062,11.8.02,13.319.02.587,0,1.344-.042,1.909.005l.006-3.91c-.335-.034-5.608-.008-6.1-.008s-1,0-1.5,0a2.378,2.378,0,0,0-1.127.421c-.3.146-1.908.968-2.079,1.01a9.075,9.075,0,0,1,.827-.667l5.91-4.589c1.706-1.379,3.356-3.03,3.738-5.266a7.013,7.013,0,0,0-.824-4.968,5.586,5.586,0,0,0-1.458-1.543,7.912,7.912,0,0,0-4.637-1.366,7.982,7.982,0,0,0-6.389,2.615c-.242.248-.479.523-.7.8a4.533,4.533,0,0,0-.639.868Z" transform="translate(-5.846 -598.697)" fill="#a6a6a6" fill-rule="evenodd"/>
    <path id="Path_180" data-name="Path 180" d="M1663.8,113.485c-1.28-.047-2.587.223-3.65-.639a3.243,3.243,0,0,1-.96-1.174,3.376,3.376,0,0,1,2.848-4.958c.337,0,1.875-.037,2.086.026a2.3,2.3,0,0,0-.517.261c-.052,1.075-.008,2.263-.008,3.351,0,.553,0,1.106,0,1.659A6.247,6.247,0,0,0,1663.8,113.485Zm.141.845-.016-.623a3.4,3.4,0,0,0,.265.3,1.83,1.83,0,0,0,1.357.365h16.277l0-8.522-.925,0c.057.515.022,7.47-.017,7.583-.2.072-11.909.026-11.956.026h-3c-.483,0-.982.09-1.226-.291a2.557,2.557,0,0,1-.184-1.32c0-2,.008-4,0-5.992l-2.643-.007a4.242,4.242,0,0,0-2.038.61,4.37,4.37,0,0,0-.645,6.8l.278.231a4.047,4.047,0,0,0,1.857.794A15.394,15.394,0,0,0,1663.939,114.33Z" transform="translate(-1614.426 -103.077)" fill="#a6a6a6" fill-rule="evenodd"/>
    <path id="Path_181" data-name="Path 181" d="M2052.612,1607.088a1.353,1.353,0,1,1-1.094-1.568A1.327,1.327,0,0,1,2052.612,1607.088Zm-5.016,0a1.355,1.355,0,1,1-1.079-1.569A1.334,1.334,0,0,1,2047.6,1607.088Zm-12.687.535a2.361,2.361,0,0,1-1.351-.227,1.169,1.169,0,0,1,.045-2.011c.505-.314.723-.179,1.315-.237Zm7.487,0-1.639-.005a5.1,5.1,0,0,0-.1-1.391,1.247,1.247,0,0,0-.728-.775,16.208,16.208,0,0,0-2.873-.089c.1-.289.9-1.656.934-1.861h-.562c-.081.226-.757,1.415-.926,1.757-.118.24.081.485.183.63.878,0,1.758-.005,2.635,0a.811.811,0,0,1,.838.487,4.41,4.41,0,0,1,.063,1.228c-.162.043-4.466.051-4.778.009v-2.984a4.207,4.207,0,0,0-2.084.294,1.653,1.653,0,0,0-.874,1.493,1.566,1.566,0,0,0,.881,1.456,4.45,4.45,0,0,0,2.093.272c3.127,0,6.254.007,9.381,0,.119.037.189.141.27.2a2.394,2.394,0,0,0,.293.183,1.921,1.921,0,0,0,2.213-.378l2.3-.007a1.9,1.9,0,0,0,2.173.409,1.577,1.577,0,0,0,.3-.176c.04-.029.1-.079.145-.115l.126-.116c.121-.039,2.39.041,2.632-.022l0-4.6a.873.873,0,0,0-.24-.021.522.522,0,0,0-.272.027c-.069.238.02,3.424-.023,4.09l-1.733,0a2.744,2.744,0,0,0,.119-1.016,1.809,1.809,0,0,0-.331-.853,1.864,1.864,0,0,0-3.382.881,2.531,2.531,0,0,0,.119.978l-1.565.008a2,2,0,0,0,.141-.982,1.873,1.873,0,0,0-3.717-.027,2.526,2.526,0,0,0,.13,1l-1.606.011c-.076-.711.064-3.844-.03-4.118l-.493-.006Z" transform="translate(-1979.238 -1561.489)" fill="#a6a6a6" fill-rule="evenodd"/>
    <path id="Path_182" data-name="Path 182" d="M384.4,1607.692c-.947.128-1.945-.224-1.923-1.23.02-.916.989-1.364,1.924-1.2Zm2.091-1.995a1.9,1.9,0,0,1,2.478,0c-.008.208-.654,1.646-.79,2.005h-.916C387.144,1607.378,386.48,1605.888,386.488,1605.7Zm12.3,1.988a6.82,6.82,0,0,1-1.131,0,1.129,1.129,0,0,1-.75-.379c-.118-.152-.041-.3-.036-.527l-.005-1.755h-.517c-.01.611.019,1.249-.006,1.853-.053,1.273-1.91,1.085-1.984.032a16.724,16.724,0,0,1,.01-1.876l-.53-.006a13.4,13.4,0,0,1-.078,2.2c-.264.616-1.061.469-1.781.48l-.01-2.672-.528-.005,0,2.663-2.691.008a2.555,2.555,0,0,1,.205-.547,12.4,12.4,0,0,0,.64-1.648,4.013,4.013,0,0,0-.786-.539,2.469,2.469,0,0,0-2.994.539,6.991,6.991,0,0,0,.427,1.1,10.969,10.969,0,0,1,.447,1.08l-1.759.012-.011-2.994a4.35,4.35,0,0,0-1.985.247,1.722,1.722,0,0,0-.97,1.268,1.584,1.584,0,0,0,.617,1.589,3.288,3.288,0,0,0,1.8.425c.078.822-.536.944-1.184.865-.207-.026-.363-.13-.571-.164l-.144.491c.707.28,1.84.394,2.257-.364a1.861,1.861,0,0,0,.181-.84H392.2a2.421,2.421,0,0,0,1.574-.25c.261-.2.215-.233.341-.3.172.144.109.229.495.436a1.672,1.672,0,0,0,1.965-.3c.013-.015.054-.072.055-.073.068-.077-.008-.017.083-.07.423.781,1.653.516,2.6.564,0-.545.043-4.448-.023-4.61-.034-.021.031-.021-.1-.037l-.392.009Z" transform="translate(-371.938 -1561.566)" fill="#a6a6a6" fill-rule="evenodd"/>
    <path id="Path_183" data-name="Path 183" d="M1246.93,113.807h.94v-5.853a1.4,1.4,0,0,0-.138-.856,3.493,3.493,0,0,1-.286-.72,6.853,6.853,0,0,1,.758.913c.394.461,1.047,1.351,1.461,1.859.748.917,1.47,1.909,2.2,2.783l1.452,1.836.019.018a3.864,3.864,0,0,0,.788.018c0-2.675-.034-5.552,0-8.213,0-.339.026-.266-.323-.264a2.269,2.269,0,0,0-.591.022l-.03,6.082a4.136,4.136,0,0,0,.348,1.074,3.951,3.951,0,0,1-.532-.62l-5.159-6.547-.9-.012Z" transform="translate(-1214.26 -102.561)" fill="#a6a6a6" fill-rule="evenodd"/>
    <path id="Path_184" data-name="Path 184" d="M864.132,104.782a3.421,3.421,0,0,1-1.617,2.617c-2.831,1.551-5.777-1.093-4.854-4.19a3.1,3.1,0,0,1,.247-.608,3.25,3.25,0,0,1,3.33-1.715A3.42,3.42,0,0,1,864.132,104.782Zm-3.626-4.8a4.52,4.52,0,0,0-1.716.47,4.222,4.222,0,0,0-2.02,2.317,4.352,4.352,0,1,0,8.376,1.257,4.285,4.285,0,0,0-2.746-3.792A4.428,4.428,0,0,0,860.506,99.984Z" transform="translate(-834.051 -97.347)" fill="#a6a6a6" fill-rule="evenodd"/>
    <path id="Path_185" data-name="Path 185" d="M2632.444,110.487a8.913,8.913,0,0,1-1.378-.016,2.112,2.112,0,0,1-1.981-2.319,2.2,2.2,0,0,1,1.214-1.659,5.386,5.386,0,0,1,2.587-.3.569.569,0,0,1-.222.143,1.259,1.259,0,0,0-.212.118Zm-.285.918c.039-.086.071-.167.114-.258.126-.266.052-.185.174-.245.019.964.078,1.651-.757,1.961a3.1,3.1,0,0,1-1.773-.024c-.159-.052-.383-.163-.514-.19a3.146,3.146,0,0,0-.273.877,8.214,8.214,0,0,0,1.293.339,3.718,3.718,0,0,0,1.492-.11c1.685-.525,1.448-2.149,1.448-3.5,0-.8.044-4.748-.019-4.962a13.238,13.238,0,0,0-1.845,0,4.174,4.174,0,0,0-2.143.739,3.044,3.044,0,0,0-1.13,1.738,2.84,2.84,0,0,0,.91,2.818A4.717,4.717,0,0,0,2632.159,111.4Z" transform="translate(-2559.296 -102.499)" fill="#a6a6a6" fill-rule="evenodd"/>
    <path id="Path_186" data-name="Path 186" d="M454.546,107.252a4.053,4.053,0,0,1-.29.343,1.227,1.227,0,0,0-.276.384,5.2,5.2,0,0,0,2.031,1.144,3.825,3.825,0,0,0,3.762-.7,2.16,2.16,0,0,0-.426-3.3c-1.645-.978-4.134-.552-4.073-2.363.031-.912,1.022-1.351,1.935-1.306a3.621,3.621,0,0,1,1.824.567,2.856,2.856,0,0,0,.506.324l.533-.7a3.55,3.55,0,0,0-.957-.63,4.036,4.036,0,0,0-3.863.108,2,2,0,0,0-.738.856,2.217,2.217,0,0,0-.18,1.36c.431,2.493,4.288,1.638,4.919,3.093a1.384,1.384,0,0,1-.127,1.31c-.743,1.02-2.547.793-3.62.2A10.123,10.123,0,0,1,454.546,107.252Z" transform="translate(-442.086 -97.944)" fill="#a6a6a6" fill-rule="evenodd"/>
    <path id="Path_187" data-name="Path 187" d="M0,105.6v.052L2.731,112c.3.722.6,1.447.919,2.142H4.5l1.825-4.26c.306-.706.605-1.471.915-2.141.091-.2.159-.361.231-.534s.154-.358.231-.545a11.433,11.433,0,0,1,.458-1.05L7.113,105.6c-.053.163-.139.339-.2.477-.078.187-.123.305-.2.478l-2.359,5.677a.766.766,0,0,0-.109.558,2.127,2.127,0,0,1,.033.619l-3.167-7.7c-.075-.156.012-.052-.1-.1L0,105.6Z" transform="translate(0 -102.833)" fill="#a6a6a6" fill-rule="evenodd"/>
    <path id="Path_188" data-name="Path 188" d="M1552.678,1605.509a1.8,1.8,0,0,1,1.232-.488,2.084,2.084,0,0,1,1.267.456l-.788,2h-.924a4.914,4.914,0,0,0-.192-.5c-.073-.178-.136-.321-.208-.493s-.146-.357-.2-.509A3.823,3.823,0,0,1,1552.678,1605.509Zm4.453,1.962-2.161.01c.024-.273.884-2.026.857-2.164a3.122,3.122,0,0,0-.8-.573,2.463,2.463,0,0,0-2.991.541,1.608,1.608,0,0,0,.2.562c.078.179.157.38.224.54a6.04,6.04,0,0,1,.429,1.1l-1.879,0-.014-2.994-.523,0v2.55c0,1.64.17,1.856-.739,1.844l-.15.477a1.151,1.151,0,0,0,1.112-.18c.306-.305.266-.681.306-1.162.215-.056,6.251-.016,6.65-.017.059-.6.005-3.28.011-4.314l0-.224c-.014-.084-.019-.063-.027-.082a1.324,1.324,0,0,0-.5-.015Z" transform="translate(-1508.981 -1561.346)" fill="#a6a6a6" fill-rule="evenodd"/>
    <path id="Path_189" data-name="Path 189" d="M1221.677,1647.116c.1.377,0,1.937.023,2.463a2.37,2.37,0,0,1-1.349-.216,1.173,1.173,0,0,1,.023-2.01A2.132,2.132,0,0,1,1221.677,1647.116Zm5.587,2.995.007-3.521-.518,0v2.989l-1.932,0c-.047-.2-.017-2.566-.017-2.983l-.528-.007v2.988l-2.049,0,0-2.989c-.94.008-2.114-.1-2.715.892a1.8,1.8,0,0,0-.161,1.47c.566,1.492,2.663,1.156,4.278,1.156C1224.827,1650.107,1226.075,1650.073,1227.264,1650.111Z" transform="translate(-1187.318 -1603.449)" fill="#a6a6a6" fill-rule="evenodd"/>
    <path id="Path_190" data-name="Path 190" d="M2887,113.5a3.15,3.15,0,0,0-.214.861,2.74,2.74,0,0,0,1.225.046,1.389,1.389,0,0,0,.84-.555,4.4,4.4,0,0,0,.384-2.426c0-.611-.042-5.429.017-5.57l-.934-.018c-.035,1.5,0,3.018,0,4.5,0,.725.169,2.73-.319,3.068a.786.786,0,0,1-.453.135C2887.317,113.557,2887.176,113.494,2887,113.5Z" transform="translate(-2811.154 -103.067)" fill="#a6a6a6" fill-rule="evenodd"/>
    <path id="Path_191" data-name="Path 191" d="M756.76,113.918a3.462,3.462,0,0,0,.964,0v-8.16a.66.66,0,0,1,.025-.277c-.237.009-.669-.042-.976-.017Z" transform="translate(-736.933 -102.692)" fill="#a6a6a6" fill-rule="evenodd"/>
    <path id="Path_192" data-name="Path 192" d="M2.413,1646.908l.012,2.486c-.564-.045-.877.047-1.336-.231a1.168,1.168,0,0,1,0-2C1.6,1646.84,1.789,1646.965,2.413,1646.908ZM0,1647.835v.6c.053.084.156,1.413,2.01,1.46.464.012,3.286.057,3.493-.016.086-.213.026-3,.026-3.49l-.53,0v2.991c-.264.015-1.891.033-2.044-.015l-.007-2.974a4.285,4.285,0,0,0-1.946.227,1.787,1.787,0,0,0-.624.469,1.812,1.812,0,0,0-.3.533.7.7,0,0,1-.08.213Z" transform="translate(0 -1603.249)" fill="#a6a6a6" fill-rule="evenodd"/>
    <path id="Path_193" data-name="Path 193" d="M878.938,1911.042c.115.075.957,1.448,1.147,1.679.147-.1.993-1.525,1.179-1.689l.006,2.6.661-.011-.006-3.689-.69,0a3.606,3.606,0,0,0-.277.411c-.09.133-.177.285-.272.434-.11.172-.185.279-.274.42l-.293.428c-.182-.107-.932-1.482-1.149-1.7l-.685.016-.013,3.684.659-.009Z" transform="translate(-855.259 -1859.89)" fill="#a6a6a6" fill-rule="evenodd"/>
    <path id="Path_194" data-name="Path 194" d="M2661.061,1911.675a6.6,6.6,0,0,1,1.138-.025c.336.028.629.137.623.522-.006.359-.319.449-.663.474a3.688,3.688,0,0,1-1.1-.042.223.223,0,0,1-.011-.024l-.012-.185c0-.085,0-.17,0-.256A1.691,1.691,0,0,1,2661.061,1911.675Zm0-1.532a.215.215,0,0,1,.026-.01l.087-.019c.017,0,.077,0,.1,0,.414,0,1.048-.062,1.252.2a.445.445,0,0,1-.049.61c-.248.231-1.045.185-1.408.153a.427.427,0,0,1-.03-.241A3.73,3.73,0,0,1,2661.061,1910.144Zm1.726,1.178c.126-.153.211-.119.353-.344a.878.878,0,0,0,.133-.5c0-.956-1.021-.952-1.618-.952a10.512,10.512,0,0,0-1.261.016l0,3.668a12.584,12.584,0,0,0,1.424.018,2.191,2.191,0,0,0,1.2-.208.735.735,0,0,0,.36-.37A.909.909,0,0,0,2662.787,1911.322Z" transform="translate(-2590.688 -1859.489)" fill="#a6a6a6" fill-rule="evenodd"/>
    <path id="Path_195" data-name="Path 195" d="M230.453,1911.1c.112.058.958,1.2,1.024,1.28l1.014,1.288.536-.017,0-3.683-.646.01-.006,2.481a.482.482,0,0,1-.149-.155c-.047-.06-.088-.1-.129-.157-.072-.093-.158-.213-.238-.307l-.976-1.258c-.085-.108-.15-.2-.236-.3a3.44,3.44,0,0,1-.23-.307H229.8l0,3.7h.648Z" transform="translate(-223.779 -1859.929)" fill="#a6a6a6" fill-rule="evenodd"/>
    <path id="Path_196" data-name="Path 196" d="M702.227,1908.084a1.269,1.269,0,1,1-.845,2A1.314,1.314,0,0,1,702.227,1908.084Zm-.156,3.2h.737a1.427,1.427,0,0,1,.365-.126,1.924,1.924,0,1,0-1.745-.132l.467.192.1.026A.18.18,0,0,1,702.071,1911.282Z" transform="translate(-682.15 -1857.482)" fill="#a6a6a6" fill-rule="evenodd"/>
    <path id="Path_197" data-name="Path 197" d="M2352.79,1909.974a10.407,10.407,0,0,1,1.124.012.571.571,0,0,1,.574.593c.01.8-1.073.623-1.7.623Zm1.515,1.722.024-.019.022-.017.046-.027.192-.089a1,1,0,0,0,.52-.629,1.259,1.259,0,0,0-.261-1.178,1.677,1.677,0,0,0-1.194-.364c-.435,0-1.115-.04-1.521.008l0,3.692.655-.011.007-1.275.808,0c.125.211.266.393.443.637l.435.649.787-.017-.482-.674A8.294,8.294,0,0,1,2354.3,1911.7Z" transform="translate(-2290.504 -1859.331)" fill="#a6a6a6" fill-rule="evenodd"/>
    <path id="Path_198" data-name="Path 198" d="M1108.7,1909.925a1.293,1.293,0,0,1,.952-1.563,1.241,1.241,0,0,1,1.489,1,1.28,1.28,0,0,1-.946,1.563A1.242,1.242,0,0,1,1108.7,1909.925Zm.888,1.627h.631a2.163,2.163,0,0,0,1.18-.646,1.944,1.944,0,0,0,.456-1.4,1.865,1.865,0,0,0-1.916-1.774,1.912,1.912,0,0,0-1.525,3.139A2.167,2.167,0,0,0,1109.588,1911.552Z" transform="translate(-1078.954 -1857.752)" fill="#a6a6a6" fill-rule="evenodd"/>
    <path id="Path_199" data-name="Path 199" d="M1912.193,1912.616l-.013-2.492a2.541,2.541,0,0,1,1.435.178,1.258,1.258,0,0,1-.625,2.317A6.3,6.3,0,0,1,1912.193,1912.616Zm-.673.588a10.576,10.576,0,0,0,1.261.011,2.27,2.27,0,0,0,1.1-.219,1.761,1.761,0,0,0,.992-1.636,1.855,1.855,0,0,0-2.057-1.844,10.77,10.77,0,0,0-1.286.016Z" transform="translate(-1861.438 -1859.474)" fill="#a6a6a6" fill-rule="evenodd"/>
    <path id="Path_200" data-name="Path 200" d="M550.261,1910.1a3.115,3.115,0,0,1,1.337.128,1.26,1.26,0,0,1-.666,2.376h-.671v-2.5Zm-.661,3.088a11.623,11.623,0,0,0,1.3.012,1.863,1.863,0,1,0-.032-3.7c-.366,0-.924-.032-1.266.008Z" transform="translate(-535.2 -1859.453)" fill="#a6a6a6" fill-rule="evenodd"/>
    <path id="Path_201" data-name="Path 201" d="M384.956,1911.392h.54a4.416,4.416,0,0,0,.7-.218c.115-.058.469-.232.529-.368a11.213,11.213,0,0,0,.018-1.541h-1.572v.573l.94.008v.654a1.443,1.443,0,0,1-1.488.16,1.37,1.37,0,0,1,.139-2.41,1.641,1.641,0,0,1,1.456.3,3.79,3.79,0,0,0,.376-.476,1.739,1.739,0,0,0-.746-.421,1.955,1.955,0,0,0-2.314,2.849A1.9,1.9,0,0,0,384.956,1911.392Z" transform="translate(-373.231 -1857.592)" fill="#a6a6a6" fill-rule="evenodd"/>
    <path id="Path_202" data-name="Path 202" d="M20.971,1911.47a9.71,9.71,0,0,1,.755-.806c.108-.125.26-.259.38-.383a3.923,3.923,0,0,0,.36-.4c-.182-.011-.388,0-.574,0-.236,0-.237.02-.372.165-.153.164-.356.377-.526.557l-1.071,1.109-.01-1.83H19.27v3.7h.648l0-1.058a6.337,6.337,0,0,1,.567-.56c.086.038.047,0,.118.095l1.127,1.514.805.01Z" transform="translate(-18.765 -1859.84)" fill="#a6a6a6" fill-rule="evenodd"/>
    <path id="Path_203" data-name="Path 203" d="M1595.189,1909.948c.1.107.084.153.162.322.059.128.1.229.157.354a4.635,4.635,0,0,1,.292.736h-1.216l.546-1.333C1595.174,1909.949,1595.165,1909.976,1595.189,1909.948Zm-1.909,2.868a1.709,1.709,0,0,0,.651,0l.391-.876h1.738a6.8,6.8,0,0,0,.388.872,2.5,2.5,0,0,0,.665.023,6.114,6.114,0,0,0-.387-.934l-1.008-2.312a3.913,3.913,0,0,0-.209-.461l-.627-.018-1.408,3.246C1593.424,1912.47,1593.31,1912.707,1593.28,1912.817Z" transform="translate(-1551.536 -1859.091)" fill="#a6a6a6" fill-rule="evenodd"/>
    <path id="Path_204" data-name="Path 204" d="M2183.494,1911.4a6.334,6.334,0,0,1,.3-.728c.088-.214.193-.491.287-.693.087.065,0-.037.08.08l.039.091.536,1.249Zm-.637,1.46a8.245,8.245,0,0,0,.384-.883h1.729a4.35,4.35,0,0,1,.2.446,1.467,1.467,0,0,0,.205.445l.667,0c-.067-.243-.649-1.5-.808-1.875l-.816-1.843-.606.016c-.091.2-1.574,3.5-1.6,3.706Z" transform="translate(-2125.036 -1859.13)" fill="#a6a6a6" fill-rule="evenodd"/>
    <path id="Path_205" data-name="Path 205" d="M2859.083,1911.409c.015-.089.552-1.331.607-1.4a8.768,8.768,0,0,1,.617,1.414Zm-.253.589,1.722,0c.154.243.293.72.383.869a2.554,2.554,0,0,0,.7.006c-.062-.154-1.576-3.677-1.656-3.706l-.591,0c-.034.162-.478,1.109-.6,1.405-.171.413-.956,2.117-1,2.317l.665-.014Z" transform="translate(-2782.916 -1859.15)" fill="#a6a6a6" fill-rule="evenodd"/>
    <path id="Path_206" data-name="Path 206" d="M1755.3,1913.6h.523c.163-.059.339-.052.524-.133a1.339,1.339,0,0,0,.826-1.088c.064-.365.05-2.086.034-2.538h-.643c-.049.652.01,1.4-.008,2.068-.017.642-.262,1.1-.942,1.082-.7-.02-.91-.476-.915-1.115-.005-.661.03-1.386,0-2.039l-.653.019c-.027.272-.022,2.2.018,2.446C1754.245,1913.471,1754.99,1913.446,1755.3,1913.6Z" transform="translate(-1708.064 -1859.802)" fill="#a6a6a6" fill-rule="evenodd"/>
    <path id="Path_207" data-name="Path 207" d="M2491.6,1911.122c.024-.247.5-1.146.6-1.456.077.22.218.485.31.7a3.532,3.532,0,0,1,.292.75Zm-.64,1.453c.134-.223.244-.679.394-.877l1.723,0,.373.891h.686l-.4-.956c-.17-.351-1.113-2.6-1.236-2.761-.769,0-.531-.113-.787.436-.076.163-.127.3-.2.465-.29.624-.528,1.26-.815,1.863l-.406.955Z" transform="translate(-2425.044 -1858.849)" fill="#a6a6a6" fill-rule="evenodd"/>
    <path id="Path_208" data-name="Path 208" d="M1471.595,1911.784h.505c.008-.005.02-.021.025-.014a1.957,1.957,0,0,0,.687-.307,1.047,1.047,0,0,0,.09-1.46c-.609-.526-1.553-.419-1.769-.812a.437.437,0,0,1,.034-.43c.213-.294.816-.22,1.17-.044.125.062.218.143.35.2a2.289,2.289,0,0,0,.345-.485c-1.035-.815-2.487-.474-2.589.445a.94.94,0,0,0,.379.973c.67.448,1.739.257,1.673.943-.044.451-.87.515-1.414.2l-.4-.264a3.166,3.166,0,0,0-.376.444C1470.585,1911.6,1471.581,1911.777,1471.595,1911.784Z" transform="translate(-1431.778 -1857.984)" fill="#a6a6a6" fill-rule="evenodd"/>
    <path id="Path_209" data-name="Path 209" d="M1286.37,1913.667l.655.011,0-1.5,1.875,0-.011-.6a15.578,15.578,0,0,1-1.832-.021,4.644,4.644,0,0,1-.024-.97h2.114l-.016-.591-2.751-.01Z" transform="translate(-1252.667 -1859.938)" fill="#a6a6a6" fill-rule="evenodd"/>
    <path id="Path_210" data-name="Path 210" d="M239.568,1647.1c.51,0,1.221-.063,1.277.819a13.466,13.466,0,0,1,0,1.645c-.206.01-2.25-.025-2.395.027a1.957,1.957,0,0,0-.019.5l2.937,0a7.81,7.81,0,0,0-.18-2.857,1.272,1.272,0,0,0-.648-.561,2.576,2.576,0,0,0-.973-.1Z" transform="translate(-232.179 -1603.434)" fill="#a6a6a6" fill-rule="evenodd"/>
    <path id="Path_211" data-name="Path 211" d="M2752.263,0h-.906a.948.948,0,0,0-.733.6,4.079,4.079,0,0,0-.065,1.275,16.108,16.108,0,0,0,1.965-.013l.012-.665a11.244,11.244,0,0,0-1.237-.026c-.052-.667.175-.54.948-.54l.016-.633Z" transform="translate(-2678.474)" fill="#a6a6a6" fill-rule="evenodd"/>
    <path id="Path_212" data-name="Path 212" d="M1102.22,1607.891l.513,0c.011-.079.049-4.328.013-4.536-.026-.148-.245-.12-.522-.095Z" transform="translate(-1073.342 -1561.238)" fill="#a6a6a6" fill-rule="evenodd"/>
    <path id="Path_213" data-name="Path 213" d="M2959.646,1603.641l-.023.052c-.04.2.006-.116-.01.059-.031.338,0,4.422.016,4.5l.509,0,0-4.632-.412-.011C2959.564,1603.616,2959.71,1603.613,2959.646,1603.641Z" transform="translate(-2882.059 -1561.601)" fill="#a6a6a6" fill-rule="evenodd"/>
    <path id="Path_214" data-name="Path 214" d="M2070.45,1913.633c.112-.008.213,0,.32,0a.675.675,0,0,0,.334-.034l.01-3.662-.66-.006Z" transform="translate(-2016.204 -1859.89)" fill="#a6a6a6" fill-rule="evenodd"/>
    <path id="Path_215" data-name="Path 215" d="M2808.792,1913.737l.654,0-.008-3.693-.647,0Z" transform="translate(-2735.2 -1859.997)" fill="#a6a6a6" fill-rule="evenodd"/>
    <path id="Path_216" data-name="Path 216" d="M1876.81,37.992l.9.014a4.305,4.305,0,0,0,.007-.91l-.89-.007Z" transform="translate(-1827.637 -36.118)" fill="#a6a6a6" fill-rule="evenodd"/>
    <path id="Path_217" data-name="Path 217" d="M2456.563,465.813l.907,0c0-.176-.053-.829.029-.892a4.344,4.344,0,0,0-.939-.014Z" transform="translate(-2392.198 -452.711)" fill="#a6a6a6" fill-rule="evenodd"/>
    <path id="Path_218" data-name="Path 218" d="M1432.491,1803.1v.534l.532.005.009-.128v-.1l-.011-.337Z" transform="translate(-1394.959 -1755.839)" fill="#a6a6a6" fill-rule="evenodd"/>
    <path id="Path_219" data-name="Path 219" d="M1398.051,1804.131l.536,0,0-.527-.54-.016Z" transform="translate(-1361.421 -1756.336)" fill="#a6a6a6" fill-rule="evenodd"/>
    <path id="Path_220" data-name="Path 220" d="M2124.67,1604l.537.027c.02-.241.045-.513-.077-.533a1.5,1.5,0,0,0-.46.015Z" transform="translate(-2069.003 -1561.476)" fill="#a6a6a6" fill-rule="evenodd"/>
    <path id="Path_221" data-name="Path 221" d="M2090.02,1604.261l.537.006,0-.523-.54,0Z" transform="translate(-2035.261 -1561.722)" fill="#a6a6a6" fill-rule="evenodd"/>
    <path id="Path_222" data-name="Path 222" d="M1276.98,1604.136l.538.027c.008-.1,0-.176.006-.275,0-.043,0-.335-.057-.249l-.215-.016a1.083,1.083,0,0,0-.271.022Z" transform="translate(-1243.523 -1561.608)" fill="#a6a6a6" fill-rule="evenodd"/>
    <path id="Path_223" data-name="Path 223" d="M1504.88,1804.167l.524.006,0-.533-.526,0Z" transform="translate(-1465.452 -1756.384)" fill="#a6a6a6" fill-rule="evenodd"/>
  </g>
  <path id="Path_224" data-name="Path 224" d="M912.149,796.13c-.065-.029-.087-.071-.144-.136a.988.988,0,0,0-1.49.086,1.236,1.236,0,0,1,.681-.012c.147.049.4.167.437.318a1.65,1.65,0,0,0-1.146.13,1.127,1.127,0,0,0-.578.847c.307-.169.375-.653,1.406-.579-.352.186-.61.139-1.012.7a1.569,1.569,0,0,0-.138,1.39,1.622,1.622,0,0,1,1.144-1.612,2.14,2.14,0,0,0-.582,2.277.249.249,0,0,0,.084.143,2.231,2.231,0,0,1,.531-1.7c.081-.074,0-.027.115-.074a2.584,2.584,0,0,1-.1.282,2.038,2.038,0,0,0,.417,2.013,3.525,3.525,0,0,1-.1-1.126c.046-.308.2-.706.466-.8a16.34,16.34,0,0,1,.052,3.428c-.034.335-.112.785-.124,1.092a2.26,2.26,0,0,1-.541-.357,4.838,4.838,0,0,0-3.486-.861,3.572,3.572,0,0,0-1.3.466,4.558,4.558,0,0,0,.676-.138,4.753,4.753,0,0,1,2.37.236,7.3,7.3,0,0,1,1.724.956,4.619,4.619,0,0,1,.518.414,14.8,14.8,0,0,1-1.922,1.656c-.587-.465-1,.189-.75.529.631.846,2.108-.912,2.648-1.371l.463-.418a1.214,1.214,0,0,1,.227.175,17.689,17.689,0,0,0,1.625,1.47c1.087.842,1.672-.041,1.183-.451-.242-.2-.47-.066-.642.065a10.88,10.88,0,0,1-1.8-1.516c-.081-.067-.053-.017-.12-.108.039-.106.132-.155.228-.227a7.731,7.731,0,0,1,1.964-1.162,4.745,4.745,0,0,1,3.069-.087c-.024-.1-.017-.072-.229-.167a4.618,4.618,0,0,0-4.514.529,2.489,2.489,0,0,1-.558.364,19.729,19.729,0,0,1-.108-4.226c0-.034.007-.109.011-.136,0-.011.006-.046.009-.056a.183.183,0,0,1,.038-.08c.532.255.545,1.322.323,1.9.226-.079.469-.735.511-1.045a2.232,2.232,0,0,0-.207-1.266c.193.039.469.531.542.73a2.082,2.082,0,0,1,.119.518,3.692,3.692,0,0,0,.02.576,1.978,1.978,0,0,0-.294-2.186,1.04,1.04,0,0,1-.191-.232,1.329,1.329,0,0,1,.8.548,1.9,1.9,0,0,1,.334,1.036,1.579,1.579,0,0,0-.147-1.381,1.724,1.724,0,0,0-1.033-.7,1.442,1.442,0,0,1,1.394.6c.178-.361-.679-1.327-1.7-.988a.379.379,0,0,1,.164-.2,1.081,1.081,0,0,1,.259-.125,1.394,1.394,0,0,1,.7-.005.841.841,0,0,0-.333-.27.9.9,0,0,0-.5-.11c-.557.023-.5.269-.8.438a2.19,2.19,0,0,1-.2-.434,3.381,3.381,0,0,0-.149-.485A5.761,5.761,0,0,1,912.149,796.13Z" transform="translate(-882.984 -774.375)" fill="#6f787c" fill-rule="evenodd"/>
  <path id="Path_225" data-name="Path 225" d="M1092.336,1448.494c.018-.1.029-.081.088-.136l.3-.343c-.063-.138-.078-.075-.144-.206l-.13-.1c-.138-.123-.892-.863-1.007-.91-.086.036-.809.848-.922.965-.355.373-.378.319.2.81l.486.442c.157.141.136.208.379.259Z" transform="translate(-1061.703 -1408.894)" fill="#cad534" fill-rule="evenodd"/>
  <path id="Path_226" data-name="Path 226" d="M801.083,778.406c.008.006.02,0,.024.018l.067.076a1.184,1.184,0,0,0,.2.32c.132-.052.019-.009.095-.047l.352-.162c.13-.118.356-.187.479-.289.058-.1-.473-.939-.511-.981a1.755,1.755,0,0,0-.485.24c-.133.074-.351.189-.488.275C800.889,778.078,801.067,778.266,801.083,778.406Z" transform="translate(-779.838 -756.974)" fill="#73b94b" fill-rule="evenodd"/>
  <path id="Path_227" data-name="Path 227" d="M882.4,706.064l-.061.716a1.975,1.975,0,0,0,.621.067l.447.023.082-1.028-.589-.064c-.471-.047-.429.011-.445.127-.023.17.016.1-.054.158Z" transform="translate(-859.223 -687.271)" fill="#ccd731" fill-rule="evenodd"/>
  <path id="Path_228" data-name="Path 228" d="M1328.39,834.174l.12.748c.122.049.213.01.388-.023.129-.024.263-.058.406-.072l-.134-.776Z" transform="translate(-1293.586 -812.198)" fill="#5ab264" fill-rule="evenodd"/>
  <path id="Path_229" data-name="Path 229" d="M983.111,648.2c-.13.014-.083.109-.151.225-.212.055-.183-.047-.439-.05a1.907,1.907,0,0,1-.458-.036c-.048-.1.032-.219.035-.382a1.8,1.8,0,0,1,.009-.223c.018-.169-.027-.141.005-.288a1.775,1.775,0,0,1,.979.064c.06.081-.028.337-.026.416.007.2,0,.089.065.158l.065-.669a7.3,7.3,0,0,0-1.136-.107l-.11,1.106a8.973,8.973,0,0,0,1.127.1Z" transform="translate(-956.223 -630.345)" fill="#3684b8" fill-rule="evenodd"/>
  <path id="Path_230" data-name="Path 230" d="M884.7,702.5l-.024.307c.07-.062.031.012.054-.158.016-.116-.025-.175.445-.127l.589.064-.082,1.028-.447-.023c.007,0,.017,0,.021.014a.938.938,0,0,0,.486.039,5.189,5.189,0,0,0,.067-1.115l-1.088-.11Z" transform="translate(-861.501 -684.017)" fill="#ced76e" fill-rule="evenodd"/>
  <path id="Path_231" data-name="Path 231" d="M880.14,769.743c-.076-.237-.43.159-.337-.406.109-.661-.1-.677.237-.686a1.879,1.879,0,0,1,.193,0,1.693,1.693,0,0,0,.415.026c-.063-.049-.051-.038-.189-.052a4.68,4.68,0,0,0-.641-.052L879.7,769.7Z" transform="translate(-856.652 -748.438)" fill="#4db0b1" fill-rule="evenodd"/>
  <path id="Path_232" data-name="Path 232" d="M964.39,715.167l.877.1a4.93,4.93,0,0,0,.1-1.144l-.2-.01.15.133c0-.006.014.01.021.016a6.8,6.8,0,0,0-.084.765c-.021.109-.027.057-.058.184l-.527-.047c-.1-.019-.2-.087-.274.006Z" transform="translate(-939.123 -695.4)" fill="#8cb372" fill-rule="evenodd"/>
  <path id="Path_233" data-name="Path 233" d="M1095.955,623.906l-.013-.12a.175.175,0,0,1,.084-.039.5.5,0,0,1,.085-.007c-.056-.238-.076-.012.184-.328a.765.765,0,0,1,.152-.134c.108-.08.043-.047.119-.207a3.034,3.034,0,0,0-.705.747c.005.007.012.01.015.022a.039.039,0,0,0,.016.02A.235.235,0,0,0,1095.955,623.906Z" transform="translate(-1067.148 -606.745)" fill="#c9d457" fill-rule="evenodd"/>
  <path id="Path_234" data-name="Path 234" d="M811.581,818.224l-.352.162c-.076.038.037-.006-.095.047a1.183,1.183,0,0,1-.2-.32l-.067-.076c0-.014-.016-.012-.024-.018.048.3-.03.21.263.471a.448.448,0,0,0,.139-.027l.225-.124C811.608,818.252,811.509,818.338,811.581,818.224Z" transform="translate(-789.596 -796.588)" fill="#e7f5cc" fill-rule="evenodd"/>
  <path id="Path_235" data-name="Path 235" d="M1286.432,1268.076c.011-.021.038.042.043-.116,0-.093,0-.039-.029-.114l-.206-.016c.036.026,0,.022.107.062a.256.256,0,0,0,.087.018Z" transform="translate(-1252.54 -1234.613)" fill="#aacf92" fill-rule="evenodd"/>
  <path id="Path_236" data-name="Path 236" d="M1042.671,1344.253c-.04-.113.02-.033-.086-.13a.422.422,0,0,0-.124-.083.291.291,0,0,0,.08.127A.287.287,0,0,0,1042.671,1344.253Z" transform="translate(-1015.147 -1308.826)" fill="#f6f9b8" fill-rule="evenodd"/>
  <path id="Path_237" data-name="Path 237" d="M1046.465,701.652l-.044-.115-.121-.037C1046.341,701.621,1046.347,701.614,1046.465,701.652Z" transform="translate(-1018.887 -683.121)" fill="#ecf0ac" fill-rule="evenodd"/>
  <path id="Path_238" data-name="Path 238" d="M1212.85,657.185a.273.273,0,0,0,.144-.155C1212.867,657.055,1212.88,657.067,1212.85,657.185Z" transform="translate(-1181.073 -639.816)" fill="#d6f4cc" fill-rule="evenodd"/>
</svg>
