<svg xmlns="http://www.w3.org/2000/svg" xmlns:xlink="http://www.w3.org/1999/xlink" width="176.208" height="79.948" viewBox="0 0 176.208 79.948">
  <defs>
    <linearGradient id="linear-gradient" x1="0.5" y1="-0.091" x2="0.5" y2="1.101" gradientUnits="objectBoundingBox">
      <stop offset="0" stop-color="#bf9442"/>
      <stop offset="0.502" stop-color="#f4e6bc"/>
      <stop offset="1" stop-color="#b98f3d"/>
    </linearGradient>
    <linearGradient id="linear-gradient-2" x1="0.5" y1="-0.456" x2="0.5" y2="1.866" xlink:href="#linear-gradient"/>
    <linearGradient id="linear-gradient-3" x1="0.5" y1="-28.978" x2="0.5" y2="12.841" xlink:href="#linear-gradient"/>
    <linearGradient id="linear-gradient-4" x1="0.514" y1="-17.215" x2="0.514" y2="7.368" xlink:href="#linear-gradient"/>
    <linearGradient id="linear-gradient-5" x1="0.507" y1="-2.207" x2="0.507" y2="2.087" xlink:href="#linear-gradient"/>
    <linearGradient id="linear-gradient-6" x1="0.5" y1="-28.977" x2="0.5" y2="12.841" xlink:href="#linear-gradient"/>
    <linearGradient id="linear-gradient-7" x1="0.486" y1="-17.215" x2="0.486" y2="7.368" xlink:href="#linear-gradient"/>
    <linearGradient id="linear-gradient-8" x1="0.493" y1="-2.207" x2="0.493" y2="2.087" xlink:href="#linear-gradient"/>
  </defs>
  <g id="Layer_x0020_1" transform="translate(0 0.01)">
    <g id="_2194136857696" transform="translate(0 -0.01)">
      <g id="Group_1" data-name="Group 1" transform="translate(115.714)">
        <path id="Path_1" data-name="Path 1" d="M3357.889,8.919c-11.008-4.088-14.813-8.929-14.813-8.929s-3.8,4.841-14.812,8.929c-7.861,2.921-15.434,8.04-15.434,22.323V48.686c0,14.284,7.573,19.4,15.434,22.323,11.008,4.09,14.813,8.929,14.813,8.929s3.8-4.84,14.813-8.929c7.861-2.92,15.434-8.039,15.434-22.323V31.242c0-14.283-7.573-19.4-15.434-22.323Z" transform="translate(-3312.83 0.01)" fill="#2a613e"/>
        <path id="Path_2" data-name="Path 2" d="M3498.306,223.768V206.326c0-11.06-4.946-15.163-12.376-17.924h0a50.315,50.315,0,0,1-13.177-6.992,50.354,50.354,0,0,1-13.178,6.992c-7.43,2.76-12.375,6.864-12.375,17.924h0v17.442c0,11.061,4.945,15.166,12.375,17.925h0a50.306,50.306,0,0,1,13.178,6.991h0a50.256,50.256,0,0,1,13.178-6.991h0C3493.36,238.934,3498.306,234.828,3498.306,223.768Zm-38.222,16.55c-7.049-2.62-11.42-6.3-11.42-16.55h0V206.326c0-10.247,4.371-13.93,11.42-16.549h0a54.3,54.3,0,0,0,12.668-6.541h0a54.3,54.3,0,0,0,12.668,6.541h0c7.05,2.619,11.419,6.3,11.419,16.549h0v17.442c0,10.249-4.37,13.931-11.419,16.55h0a54.3,54.3,0,0,0-12.668,6.54h0a54.311,54.311,0,0,0-12.668-6.54Z" transform="translate(-3442.506 -175.073)" fill-rule="evenodd" fill="url(#linear-gradient)"/>
        <path id="Path_3" data-name="Path 3" d="M3875.182,457.4h0a.068.068,0,0,0-.056.029h0c-.031.054-.068.116-.085.15h0a6.148,6.148,0,0,0-.631,1.684h0a.066.066,0,0,1-.1.039h0a5.268,5.268,0,0,0-2.812-.809h0a5.417,5.417,0,0,0-2.745.727h0a.057.057,0,0,0,.031.107h0a6.085,6.085,0,0,1,3.126,1.058h0a.058.058,0,0,1-.044.1h0c-.208-.02-.42-.029-.633-.032h0a7.228,7.228,0,0,0-6.855,4.175h0c-.021.054.057.1.1.063h0a9.841,9.841,0,0,1,6.4-2.135h.006a.059.059,0,0,1,.016.117h0c-3.363.679-6,2.906-6.706,5.76h0a.069.069,0,0,0,.112.06h0a13.361,13.361,0,0,1,5.264-3.051h0c.063-.021.115.052.068.1h0a9.879,9.879,0,0,0-3.375,7.185h0q0,.152,0,.3h0c0,.061.1.09.125.035h0a13.225,13.225,0,0,1,3.7-4.446h0c.048-.038.126.008.1.065h0a12,12,0,0,0-.737,4.016h0a12.346,12.346,0,0,0,.447,3.413h0c.017.061.118.067.128.007h0a15.2,15.2,0,0,1,2.833-6.115h0c.04-.051.134-.013.118.05h0a10.7,10.7,0,0,0-.364,2.715h0a10.892,10.892,0,0,0,1,4.615h0a.068.068,0,0,0,.127-.019h0a10.787,10.787,0,0,1,.255-1.7h0c.062.986.122,1.968.182,2.952h0a.028.028,0,0,1-.019.028h-.008l-.01,0h0l-.3,0h0a.026.026,0,0,0-.026.031h0q.108,1.488.219,2.975h0a.023.023,0,0,1-.015.026h-.057s-.008,0-.013.006h0c-.1,0-.194,0-.292-.006h0a.029.029,0,0,0-.03.033h0q.131,1.488.26,2.975h0a.029.029,0,0,1-.009.026h0c-.055,0-.11,0-.167-.006h0a.019.019,0,0,0-.017.008h0c-.1,0-.191,0-.287-.008h0a.027.027,0,0,0-.028.032h0q.155,1.49.313,2.977h0a.029.029,0,0,1-.007.024h0c-.061,0-.118-.005-.176-.006h0a.03.03,0,0,0-.023.008h0c-.094,0-.188,0-.284-.008h0a.026.026,0,0,0-.027.031h0c.119,1,.359,2.9.359,2.9h0l1.635,1.27,1.635-1.162s.241-2.005.36-3.008h0a.028.028,0,0,0-.029-.032h0l-.284.009h0a.022.022,0,0,0-.021-.009h0c-.059,0-.118,0-.177.006h0a.061.061,0,0,1-.008-.014h0c.107-1,.211-1.995.316-2.987h0c0-.017-.012-.035-.029-.032h0c-.095,0-.19.006-.287.008h0c-.005,0-.01-.009-.019-.008h0c-.055,0-.112,0-.166.006h0a.117.117,0,0,1-.012-.015h0c.088-1,.174-1.993.263-2.985h0a.03.03,0,0,0-.028-.033h0c-.1,0-.194.005-.292.006h0a.03.03,0,0,1-.008-.006h0l-.066,0h0a.05.05,0,0,1-.013-.011h0q.111-1.492.222-2.991h0a.029.029,0,0,0-.028-.031h0l-.3,0h0l-.005,0h-.013a.03.03,0,0,1-.019-.028h0q.092-1.476.183-2.953h0a10.651,10.651,0,0,1,.256,1.7h0a.066.066,0,0,0,.125.016h0a10.859,10.859,0,0,0,1-4.613h0a10.72,10.72,0,0,0-.363-2.715h0c-.016-.063.078-.1.118-.048h0a15.2,15.2,0,0,1,2.831,6.114h0c.013.06.111.056.128-.007h0a12.355,12.355,0,0,0,.447-3.411h0a11.915,11.915,0,0,0-.738-4.017h0c-.02-.057.056-.1.1-.066h0a13.234,13.234,0,0,1,3.7,4.447h0c.027.053.123.026.125-.035h0c0-.1,0-.205,0-.307h0a9.871,9.871,0,0,0-3.376-7.185h0c-.047-.043,0-.116.068-.1h0a13.36,13.36,0,0,1,5.265,3.05h0c.042.04.125,0,.111-.059h0c-.7-2.855-3.341-5.083-6.7-5.762h0a.058.058,0,0,1,.013-.115h.005a9.825,9.825,0,0,1,6.4,2.135h0c.047.039.127-.009.106-.064h0a7.231,7.231,0,0,0-6.857-4.175h0c-.213,0-.423.015-.633.032h0a.057.057,0,0,1-.043-.1h0a6.066,6.066,0,0,1,3.125-1.059h0a.057.057,0,0,0,.031-.105h0a5.428,5.428,0,0,0-2.746-.729h0a5.292,5.292,0,0,0-2.811.809h0a.066.066,0,0,1-.1-.038h0a6.193,6.193,0,0,0-.629-1.685h0c-.019-.033-.056-.1-.087-.15h0a.07.07,0,0,0-.055-.029h0Z" transform="translate(-3844.936 -441.423)" fill-rule="evenodd" fill="url(#linear-gradient-2)"/>
        <path id="Path_4" data-name="Path 4" d="M3804.9,1597.807a10.308,10.308,0,0,1-3.291.876h0a1.763,1.763,0,0,1-1-.144h0a.952.952,0,0,0-.227-.286h0a.309.309,0,0,0-.249-.05h0a.271.271,0,0,0-.153.11h0a.352.352,0,0,0-.071.228h0a.389.389,0,0,0,.121.257h0a.777.777,0,0,0,.135.1h0a1.676,1.676,0,0,0,.164.09h0a1.93,1.93,0,0,0,.387.125h0a2.793,2.793,0,0,0,.457.056h0a4.527,4.527,0,0,0,.5-.008h0a7.308,7.308,0,0,0,1.13-.183h0a15.461,15.461,0,0,0,2.606-.921h0c.329-.147.667-.306,1.009-.476h0c-.034-.047-.288-.3-.3-.322h0q-.636.3-1.229.548Z" transform="translate(-3782.9 -1541.468)" fill-rule="evenodd" fill="url(#linear-gradient-3)"/>
        <path id="Path_5" data-name="Path 5" d="M3771.285,1614.608a14.642,14.642,0,0,1-2.683.854h0c-.206.039-.408.072-.6.094h0c-.2.025-.386.038-.569.043h0a3.577,3.577,0,0,1-1-.1h0a1.9,1.9,0,0,1-.408-.158h0a1.31,1.31,0,0,1-.171-.107h0a.953.953,0,0,1-.146-.124h0a.561.561,0,0,1-.1-.156h0a.427.427,0,0,1-.033-.17h0a.436.436,0,0,1,.1-.274h0a.35.35,0,0,1,.193-.12h0a.241.241,0,0,1,.116,0h0a.965.965,0,0,0-.9-.047h0a1.255,1.255,0,0,0-.541,1.7h0a2.253,2.253,0,0,0,1.623,1.2h0a4.475,4.475,0,0,0,1.038.112h0a14.506,14.506,0,0,0,5.838-1.708h0c.091-.044.184-.088.274-.134h0l.29-.147c-.1-.123-.315-.368-.512-.585h0a6.252,6.252,0,0,0-.66-.687s-.758.355-1.15.518Z" transform="translate(-3748.639 -1557.711)" fill-rule="evenodd" fill="url(#linear-gradient-4)"/>
        <path id="Path_6" data-name="Path 6" d="M3971.368,1186.55a17,17,0,0,0-5.556,1.4h0a35.285,35.285,0,0,0-7.228,4.558h0c-2.943,2.225-5.481,4.32-7.836,5.843h0c-1.162.751-2.257,1.4-3.276,1.931h0c-1.237-1.338-1.028-2.2-1.028-2.2h0a.827.827,0,0,0-.917-.13h0c-.743.6.01,1.506.96,2.457h0c.079.076.542.541.547.538h0a10.575,10.575,0,0,1,.976,1.114h0a1.466,1.466,0,0,1,.1.163h0a2.061,2.061,0,0,1-.035,2.273h0c.612.7.968.387.968.387h0c.691-.419.577-1.51.007-2.552h0a71.594,71.594,0,0,0,11.012-7.763h0a34.824,34.824,0,0,1,2.969-2.21h0a30.983,30.983,0,0,1,5.431-3.155h0a22.138,22.138,0,0,1,7.275-1.975h0a.052.052,0,0,0,.024-.1h0l-.048-.019h0c-.084-.026-.431-.139-.744-.237h0a8.782,8.782,0,0,0-2.626-.351h0Q3971.861,1186.52,3971.368,1186.55Zm-12.54,6.193c.13-.1.259-.2.388-.292h0q.193-.146.39-.29h0c.128-.1.259-.19.389-.285h0c.259-.193.521-.377.782-.565h0c.521-.37,1.044-.73,1.568-1.074h0c.524-.345,1.048-.676,1.574-.983h0a19.923,19.923,0,0,1,3.159-1.531h0l.2-.071h0l.1-.033h0l.1-.033c.064-.023.13-.044.2-.066h0l.194-.062h0l.1-.03h0c.032-.01.065-.019.1-.029h0c.065-.017.13-.037.194-.055h0l.192-.053h0l.095-.026h0l.1-.024h0c.063-.016.127-.032.19-.05h0l.188-.044h0l.094-.021h0l.093-.023h0c.062-.012.124-.027.185-.04h0c.249-.055.491-.1.731-.143h0c.48-.083.942-.141,1.385-.177h0c.44-.037.927-.023,1.321-.022h0a7.656,7.656,0,0,1,1.162.1h0c-.375-.032-.783-.051-1.228-.048h0c-.392,0-.81.021-1.247.063h0c-.439.04-.9.1-1.374.19h0c-.236.043-.479.094-.724.15h0l-.187.043h0l-.092.023h0c-.03.006-.062.016-.092.023h0l-.187.047h0l-.187.05h0l-.1.026h0l-.1.026h0c-.063.018-.125.037-.19.054h0c-.063.022-.127.04-.192.059h0c-.031.01-.063.02-.095.029h0l-.1.031-.192.063h0l-.194.068h0l-.1.033h0l-.1.035h0l-.195.072h0c-3.365,1.11-7.4,4.308-8.663,5.161h0c.119-.094.241-.183.363-.276Z" transform="translate(-3923.136 -1145.075)" fill-rule="evenodd" fill="url(#linear-gradient-5)"/>
        <path id="Path_7" data-name="Path 7" d="M4371.129,1597.582q.514.255,1.011.476h0a15.388,15.388,0,0,0,2.605.922h0a7.274,7.274,0,0,0,1.131.183h0a4.563,4.563,0,0,0,.5.008h0a2.735,2.735,0,0,0,.455-.056h0a1.9,1.9,0,0,0,.389-.125h0a1.676,1.676,0,0,0,.162-.09h0a.749.749,0,0,0,.135-.1h0a.379.379,0,0,0,.121-.257h0a.348.348,0,0,0-.069-.228h0a.285.285,0,0,0-.154-.11h0a.308.308,0,0,0-.248.05h0a.934.934,0,0,0-.226.286h0a1.771,1.771,0,0,1-1,.144h0a10.308,10.308,0,0,1-3.29-.876h0q-.593-.243-1.23-.548h0c-.007.023-.261.275-.3.322Z" transform="translate(-4334.164 -1541.469)" fill-rule="evenodd" fill="url(#linear-gradient-6)"/>
        <path id="Path_8" data-name="Path 8" d="M4330.411,1614.777c-.2.217-.407.462-.512.585l.289.147h0c.091.046.185.09.275.134h0a14.489,14.489,0,0,0,5.837,1.708h0a4.462,4.462,0,0,0,1.038-.113h0a2.256,2.256,0,0,0,1.623-1.2h0a1.255,1.255,0,0,0-.541-1.7h0a.966.966,0,0,0-.9.047h0a.239.239,0,0,1,.116,0h0a.348.348,0,0,1,.192.12h0a.42.42,0,0,1,.1.273h0a.424.424,0,0,1-.032.17h0a.53.53,0,0,1-.1.156h0a.932.932,0,0,1-.145.125h0a1.308,1.308,0,0,1-.172.107h0a1.91,1.91,0,0,1-.408.158h0a3.566,3.566,0,0,1-1,.1h0c-.184-.005-.372-.019-.568-.043h0c-.194-.023-.4-.056-.6-.095h0a14.545,14.545,0,0,1-2.684-.854h0c-.394-.163-1.149-.518-1.149-.518a6.158,6.158,0,0,0-.661.687Z" transform="translate(-4294.374 -1557.711)" fill-rule="evenodd" fill="url(#linear-gradient-7)"/>
        <path id="Path_9" data-name="Path 9" d="M3538.029,1186.871c-.312.1-.66.211-.745.237h0l-.048.019h0a.052.052,0,0,0,.024.1h0a22.1,22.1,0,0,1,7.274,1.975h0a30.926,30.926,0,0,1,5.431,3.155h0a34.883,34.883,0,0,1,2.97,2.21h0a71.632,71.632,0,0,0,11.012,7.763h0c-.569,1.041-.684,2.132.007,2.552h0s.357.309.968-.387h0a2.062,2.062,0,0,1-.034-2.273h0a1.739,1.739,0,0,1,.1-.163h0a10.8,10.8,0,0,1,.977-1.114h0c.006,0,.468-.462.547-.538h0c.952-.951,1.7-1.855.961-2.457h0a.83.83,0,0,0-.918.13h0s.209.863-1.027,2.2h0c-1.02-.535-2.115-1.18-3.277-1.931h0c-2.355-1.523-4.893-3.619-7.835-5.843h0a35.315,35.315,0,0,0-7.228-4.558h0a16.99,16.99,0,0,0-5.557-1.4h0c-.33-.02-.653-.031-.972-.031h0A8.79,8.79,0,0,0,3538.029,1186.871Zm2.147-.149c.395,0,.879-.016,1.322.022h0c.44.036.9.094,1.383.177h0c.24.04.483.088.73.143h0c.062.013.124.028.187.04h0l.092.023h0l.094.021h0l.189.044h0c.063.017.127.033.191.05h0l.1.024h0l.1.025h0l.191.054h0c.064.017.127.038.193.055h0c.032.011.064.019.1.029h0l.1.03h0l.2.062h0l.194.066h0l.1.034.1.033h0l.2.071a19.988,19.988,0,0,1,3.161,1.532h0c.524.307,1.049.637,1.574.983h0c.521.344,1.045.7,1.569,1.074h0c.258.188.521.372.78.565h0c.13.1.26.189.39.285h0q.2.145.388.29h0c.13.1.26.194.39.292h0c.121.093.242.182.363.276h0c-1.26-.853-5.3-4.051-8.664-5.16h0l-.194-.072h0c-.031-.012-.065-.024-.1-.035h0l-.1-.034h0l-.193-.068h0l-.193-.063h0l-.1-.031-.095-.029h0c-.064-.019-.127-.038-.19-.059h0c-.064-.016-.128-.036-.19-.053h0c-.034-.008-.064-.017-.1-.026h0l-.094-.026h0c-.062-.017-.125-.032-.187-.05h0l-.187-.047h0c-.031-.007-.062-.016-.093-.023h0c-.031-.007-.063-.016-.094-.023h0c-.061-.015-.123-.03-.185-.043h0c-.245-.056-.486-.107-.726-.15h0c-.473-.087-.933-.15-1.372-.19h0c-.438-.042-.856-.06-1.249-.063h0c-.443,0-.853.016-1.227.048h0a7.666,7.666,0,0,1,1.162-.1h0Z" transform="translate(-3529.365 -1145.076)" fill-rule="evenodd" fill="url(#linear-gradient-8)"/>
      </g>
      <g id="Group_2" data-name="Group 2" transform="translate(0 5.109)">
        <path id="Path_10" data-name="Path 10" d="M526.54,327.291a2.292,2.292,0,0,0,1.632-.617,2.134,2.134,0,0,0,.637-1.573,2.181,2.181,0,0,0-.637-1.613,2.293,2.293,0,0,0-1.632-.618,2.147,2.147,0,0,0-1.553.618,2.224,2.224,0,0,0-.638,1.613,2.144,2.144,0,0,0,2.19,2.19Z" transform="translate(-506.035 -316.701)" fill="#2a613e"/>
        <path id="Path_11" data-name="Path 11" d="M1413.54,327.291a2.3,2.3,0,0,0,1.633-.617,2.14,2.14,0,0,0,.637-1.573,2.186,2.186,0,0,0-.637-1.613,2.3,2.3,0,0,0-1.633-.618,2.15,2.15,0,0,0-1.553.618,2.225,2.225,0,0,0-.637,1.613,2.144,2.144,0,0,0,2.19,2.19Z" transform="translate(-1362.053 -316.701)" fill="#2a613e"/>
        <path id="Path_12" data-name="Path 12" d="M1549.26,327.291a2.293,2.293,0,0,0,1.631-.617,2.134,2.134,0,0,0,.637-1.573,2.181,2.181,0,0,0-.637-1.613,2.293,2.293,0,0,0-1.631-.618,2.147,2.147,0,0,0-1.553.618,2.224,2.224,0,0,0-.637,1.613,2.144,2.144,0,0,0,2.19,2.19Z" transform="translate(-1493.032 -316.701)" fill="#2a613e"/>
        <path id="Path_13" data-name="Path 13" d="M1922.2,594.354h-7.745v-4.8a5.628,5.628,0,0,1,1.813-4.461,5.859,5.859,0,0,1,1.235-.8,9.014,9.014,0,0,1,2.188-.739l2.51-.528Zm4.251-17.712c-.587.363-2.572,1.364-8.113,2.561a10.787,10.787,0,0,0-5.5,2.847,10.014,10.014,0,0,0-2.847,7.407v9.181a.155.155,0,0,0,.155.155h12.069a4.413,4.413,0,0,1-4.412,4.414h-7.331a.112.112,0,0,0-.1.154l1.673,4.1a.338.338,0,0,0,.312.209l5.47-.011a8.851,8.851,0,0,0,8.833-8.85V576.763a.139.139,0,0,0-.21-.121Z" transform="translate(-1843.285 -561.589)" fill="#2a613e"/>
        <path id="Path_14" data-name="Path 14" d="M979.414,349.3h-7.746v-4.8a5.627,5.627,0,0,1,1.811-4.461,5.921,5.921,0,0,1,1.235-.8,9.05,9.05,0,0,1,2.189-.739l2.51-.528Zm4.249-17.712c-.585.364-2.572,1.364-8.113,2.561a10.794,10.794,0,0,0-5.5,2.847,10.021,10.021,0,0,0-2.847,7.407v4.9h-7.769V322.811a.116.116,0,0,0-.155-.109l-4.209,1.533a.117.117,0,0,0-.075.109V353.6a.132.132,0,0,0,.133.132h28.606a.136.136,0,0,0,.137-.135v-21.9A.139.139,0,0,0,983.663,331.586Z" transform="translate(-921.643 -316.532)" fill="#2a613e"/>
        <path id="Path_15" data-name="Path 15" d="M24.425,594.354H16.679v-4.8a5.628,5.628,0,0,1,1.813-4.461,5.87,5.87,0,0,1,1.235-.8,9.018,9.018,0,0,1,2.188-.739l2.51-.528Zm4.249-17.712c-.585.364-2.57,1.364-8.111,2.561a10.789,10.789,0,0,0-5.5,2.847,10.015,10.015,0,0,0-2.847,7.407v4.9H8.3a4.183,4.183,0,0,1-2.152-.9,4.8,4.8,0,0,1-1.652-4v-8.295a.106.106,0,0,0-.134-.1l-4.289,1.2a.106.106,0,0,0-.078.1v7.832a8.345,8.345,0,0,0,2.668,6.551,7.754,7.754,0,0,0,4.559,2.051H28.753a.132.132,0,0,0,.133-.132v-21.9A.139.139,0,0,0,28.674,576.642Z" transform="translate(0 -561.589)" fill="#2a613e"/>
        <path id="Path_16" data-name="Path 16" d="M2518.745,352.179l-4.21,1.533a.113.113,0,0,0-.075.109v28.229a.134.134,0,0,0,.134.135h4.171a.135.135,0,0,0,.135-.135V352.287A.116.116,0,0,0,2518.745,352.179Z" transform="translate(-2426.632 -344.979)" fill="#2a613e"/>
        <path id="Path_17" data-name="Path 17" d="M2514.577,260.951l4.253-1.632a.093.093,0,0,0,.06-.087v-1.667a.093.093,0,0,0-.127-.087l-4.253,1.632a.092.092,0,0,0-.06.087v1.667A.094.094,0,0,0,2514.577,260.951Z" transform="translate(-2426.623 -253.588)" fill="#2a613e"/>
        <path id="Path_18" data-name="Path 18" d="M2518.891,146.312v1.7a.215.215,0,0,1-.1.179,6.139,6.139,0,0,1-1.607.806c-1.5.411-1.216,2.159-.2,1.854.981-.3-1.727,1.893-1.684,1.864a5.6,5.6,0,0,0,.1-.8,2.274,2.274,0,0,1-.952-1.668c0-1.016.549-2.122,2.452-2.752a3.5,3.5,0,0,0,1.885-1.212A.057.057,0,0,1,2518.891,146.312Z" transform="translate(-2426.623 -146.256)" fill="#2a613e"/>
        <path id="Path_19" data-name="Path 19" d="M491.439,1591.959a.648.648,0,0,0,.462-.174.6.6,0,0,0,.18-.445.613.613,0,0,0-.18-.455.649.649,0,0,0-.462-.175.611.611,0,0,0-.439.175.632.632,0,0,0-.18.455.6.6,0,0,0,.619.619Z" transform="translate(-473.676 -1540.256)" fill="#b98f3d"/>
        <path id="Path_20" data-name="Path 20" d="M446.368,1591.959a.651.651,0,0,0,.462-.174.608.608,0,0,0,.18-.445.619.619,0,0,0-.18-.455.652.652,0,0,0-.462-.175.61.61,0,0,0-.439.175.632.632,0,0,0-.179.455.6.6,0,0,0,.618.619Z" transform="translate(-430.18 -1540.256)" fill="#b98f3d"/>
        <path id="Path_21" data-name="Path 21" d="M738.807,1546.7a2.423,2.423,0,0,1-.523,1.771,1.1,1.1,0,0,1-.8.293h-.63v-8.387l-1.047.549v7.838h-1.581v-4.577l-1.047.547v4.03h-.346a1.276,1.276,0,0,1-.67-.293l-.7.777a2.024,2.024,0,0,0,1.372.562h4.613a2.169,2.169,0,0,0,1.541-.562,3.352,3.352,0,0,0,.866-2.548v-6.311l-1.045.549Z" transform="translate(-705.911 -1491.684)" fill="#b98f3d"/>
        <path id="Path_22" data-name="Path 22" d="M1125.6,1591.92a.65.65,0,0,0,.46-.174.6.6,0,0,0,.187-.446.6.6,0,0,0-.187-.455.644.644,0,0,0-.46-.176.608.608,0,0,0-.439.176.633.633,0,0,0-.18.455.6.6,0,0,0,.619.62Z" transform="translate(-1085.685 -1540.218)" fill="#b98f3d"/>
        <path id="Path_23" data-name="Path 23" d="M1174.559,1591.92a.652.652,0,0,0,.461-.174.607.607,0,0,0,.181-.446.617.617,0,0,0-.181-.455.646.646,0,0,0-.461-.176.607.607,0,0,0-.439.176.633.633,0,0,0-.18.455.6.6,0,0,0,.619.62Z" transform="translate(-1132.935 -1540.218)" fill="#b98f3d"/>
        <path id="Path_24" data-name="Path 24" d="M1104.412,1653.889H1101.8v-2.94a2.9,2.9,0,0,1,2,.664,2.577,2.577,0,0,1,.613,1.695Zm-6.106,0h-2.616v-.581a2.574,2.574,0,0,1,.613-1.695,2.9,2.9,0,0,1,2-.664Zm7.153-.536a3,3,0,0,0-.724-2.517,4.129,4.129,0,0,0-2.2-.885,5.958,5.958,0,0,1-1.693-.527l-.091-.044v4.58h-1.4v-4.58l-.092.044a5.937,5.937,0,0,1-1.691.527,4.12,4.12,0,0,0-2.2.885,3,3,0,0,0-.726,2.517v1.652h10.815v-.307l.012-.739h-.012Z" transform="translate(-1056.405 -1596.877)" fill="#b98f3d"/>
        <path id="Path_25" data-name="Path 25" d="M1450.89,1546.1a2.424,2.424,0,0,1-.524,1.771,1.1,1.1,0,0,1-.8.293h-4.059v-.576a2.724,2.724,0,0,1,.519-1.771c.746-.747,3.048-.664,3.048-.664v-1.569l-.093.044a5.961,5.961,0,0,1-1.692.527,4.124,4.124,0,0,0-2.2.885,3.157,3.157,0,0,0-.724,2.592v.531h-1.65v-8.29l-1.047.547v8.789h7.858a2.169,2.169,0,0,0,1.541-.562,3.346,3.346,0,0,0,.866-2.548v-6.344l-1.045.548Z" transform="translate(-1391.314 -1491.086)" fill="#b98f3d"/>
        <path id="Path_26" data-name="Path 26" d="M1769.39,1549.224h1.047v-9.454l-1.047.548Z" transform="translate(-1707.587 -1491.096)" fill="#b98f3d"/>
        <path id="Path_27" data-name="Path 27" d="M1933.808,1591.92a.651.651,0,0,0,.461-.174.6.6,0,0,0,.186-.446.605.605,0,0,0-.186-.455.645.645,0,0,0-.461-.176.609.609,0,0,0-.439.176.632.632,0,0,0-.179.455.6.6,0,0,0,.618.62Z" transform="translate(-1865.665 -1540.218)" fill="#b98f3d"/>
        <path id="Path_28" data-name="Path 28" d="M1982.758,1591.92a.658.658,0,0,0,.462-.174.61.61,0,0,0,.179-.446.62.62,0,0,0-.179-.455.652.652,0,0,0-.462-.176.609.609,0,0,0-.439.176.633.633,0,0,0-.179.455.6.6,0,0,0,.619.62Z" transform="translate(-1912.905 -1540.218)" fill="#b98f3d"/>
        <path id="Path_29" data-name="Path 29" d="M2195.188,1839.1a.607.607,0,0,0-.439.174.634.634,0,0,0-.179.456.606.606,0,0,0,.618.619.645.645,0,0,0,.461-.175.59.59,0,0,0,.186-.443.607.607,0,0,0-.186-.456A.645.645,0,0,0,2195.188,1839.1Z" transform="translate(-2117.915 -1779.97)" fill="#b98f3d"/>
        <path id="Path_30" data-name="Path 30" d="M2244.148,1839.1a.608.608,0,0,0-.439.174.634.634,0,0,0-.179.456.605.605,0,0,0,.618.619.644.644,0,0,0,.461-.175.6.6,0,0,0,.18-.443.616.616,0,0,0-.18-.456A.644.644,0,0,0,2244.148,1839.1Z" transform="translate(-2165.165 -1779.97)" fill="#b98f3d"/>
        <path id="Path_31" data-name="Path 31" d="M1916.477,1551.536h-1.328v-.253a2.138,2.138,0,0,1,.1-.748.634.634,0,0,1,.768-.381c.432.137.459.689.463,1.067v.316Zm-14.261-.071H1899.6v-.847a1.912,1.912,0,0,1,.613-1.429,2.9,2.9,0,0,1,2-.664Zm19.009-1.993a2.431,2.431,0,0,1-.522,1.771,1.1,1.1,0,0,1-.8.293h-.519v-.87a2.487,2.487,0,0,0-.726-2.25,4.115,4.115,0,0,0-2.2-.884,5.967,5.967,0,0,1-1.691-.527l-.092-.044v1.569h1.045a2.888,2.888,0,0,1,2,.664,1.917,1.917,0,0,1,.613,1.428v.915h-.812v-.253a2.341,2.341,0,0,0-.6-1.79,1.65,1.65,0,0,0-2.228,0,2.342,2.342,0,0,0-.6,1.79v.253h-2.3v-4.58l-1.045.549v4.031h-3.3v-4.58l-1.046.549v4.031h-3.152v-4.58l-.092.044a5.937,5.937,0,0,1-1.693.527,4.127,4.127,0,0,0-2.2.885,3,3,0,0,0-.724,2.517v1.652h21.31a2.169,2.169,0,0,0,1.542-.562,3.351,3.351,0,0,0,.866-2.548v-6.222l-1.046.549Z" transform="translate(-1832.235 -1494.454)" fill="#b98f3d"/>
        <path id="Path_32" data-name="Path 32" d="M2611.51,1543.779v8.785h1.045v-9.334Z" transform="translate(-2520.292 -1494.435)" fill="#b98f3d"/>
        <path id="Path_33" data-name="Path 33" d="M332.424,1551.321h-2.616v-.844a1.919,1.919,0,0,1,.613-1.429,2.891,2.891,0,0,1,2-.663Zm1.047-4.507-.094.044a5.912,5.912,0,0,1-1.691.529,4.113,4.113,0,0,0-2.2.884,2.484,2.484,0,0,0-.724,2.25v.87h-1.917V1543.1l-1.045.549v8.789h7.673l0-.526Z" transform="translate(-314.42 -1494.31)" fill="#b98f3d"/>
        <path id="Path_34" data-name="Path 34" d="M573.351,1653.957h-2.616v-.844a1.919,1.919,0,0,1,.613-1.429,2.891,2.891,0,0,1,2-.663Zm-.737-3.934a4.114,4.114,0,0,0-2.2.884,2.485,2.485,0,0,0-.724,2.25v1.9h3.656v.971a1.1,1.1,0,0,1-.293.793,1.347,1.347,0,0,1-1.017.337H570.9l.536,1.046h.595a2.331,2.331,0,0,0,1.794-.68,2.091,2.091,0,0,0,.569-1.474c0-.04,0-.084-.007-.129v-.865h.007v-5.608l-.094.044a5.926,5.926,0,0,1-1.691.529Z" transform="translate(-549.788 -1596.945)" fill="#b98f3d"/>
        <path id="Path_35" data-name="Path 35" d="M12.452,1653.956H9.836v-.844a1.92,1.92,0,0,1,.613-1.429,2.892,2.892,0,0,1,2-.663Zm-.738-3.933a4.113,4.113,0,0,0-2.2.884,2.485,2.485,0,0,0-.724,2.25v.87H5.841a1.189,1.189,0,0,1-.608-.255,1.357,1.357,0,0,1-.467-1.13v-2.453l-1.045.549v1.9a2.359,2.359,0,0,0,.753,1.85,2.2,2.2,0,0,0,1.288.58h3.1v-.015H13.5v-5.608l-.094.044A5.908,5.908,0,0,1,11.715,1650.023Z" transform="translate(-3.59 -1596.945)" fill="#b98f3d"/>
        <path id="Path_36" data-name="Path 36" d="M205.319,1591.959a.644.644,0,0,0,.46-.174.6.6,0,0,0,.181-.445.613.613,0,0,0-.181-.455.646.646,0,0,0-.46-.175.609.609,0,0,0-.439.175.632.632,0,0,0-.18.455.6.6,0,0,0,.619.619Z" transform="translate(-197.55 -1540.256)" fill="#b98f3d"/>
        <path id="Path_37" data-name="Path 37" d="M2115.12,1545.561h1.585c.052-.13.13-.284.18-.422h-.62a.477.477,0,0,1-.5-.509.488.488,0,0,1,.5-.534.926.926,0,0,1,.4.1,3.08,3.08,0,0,0,.1-.379,1.088,1.088,0,0,0-.507-.122.9.9,0,0,0-.948.948,1.05,1.05,0,0,0,.147.491h-.526Z" transform="translate(-2041.067 -1494.888)" fill="#b98f3d"/>
        <path id="Path_38" data-name="Path 38" d="M760.71,1545.561H762.3c.052-.13.129-.284.181-.422h-.62a.477.477,0,0,1-.5-.509.488.488,0,0,1,.5-.534.924.924,0,0,1,.4.1,3.169,3.169,0,0,0,.1-.379,1.091,1.091,0,0,0-.507-.122.9.9,0,0,0-.948.948,1.069,1.069,0,0,0,.146.491h-.525Z" transform="translate(-733.965 -1494.888)" fill="#b98f3d"/>
        <path id="Path_39" data-name="Path 39" d="M6.712,1974.2H5.872c-.1,0-.117-.007-.117-.116v-.192c.012-.056.055-.056.117-.056h1.32c.111-.005.111.043.111.13v1.295c-.007.217-.007.242-.08.34a1.741,1.741,0,0,1-1.363.494,2.279,2.279,0,0,1-.093-4.542c1.024,0,1.549.623,1.549.925a.284.284,0,0,1-.284.291c-.16,0-.235-.111-.364-.308a1.045,1.045,0,0,0-.919-.524c-.691,0-1.37.567-1.37,1.788,0,1.1.549,1.968,1.53,1.968a1.216,1.216,0,0,0,.635-.154c.161-.1.167-.235.167-.431Z" transform="translate(-3.59 -1907.794)" fill="#b98f3d"/>
        <path id="Path_40" data-name="Path 40" d="M134.8,1976.48v1.691h1.665c.08,0,.118,0,.118.1v.2c0,.093-.043.1-.118.1h-2.146c-.092,0-.124-.007-.124-.111v-4.1c0-.105.02-.148.124-.148h2.146c.068,0,.118.006.118.092a2.1,2.1,0,0,1-.007.234c-.005.056-.031.068-.111.068H134.8v1.486h1.407c.068,0,.116,0,.116.094s0,.223-.005.24c-.012.051-.043.056-.111.056Z" transform="translate(-129.513 -1910.361)" fill="#b98f3d"/>
        <path id="Path_41" data-name="Path 41" d="M229.352,1977.516v-3.189c0-.08.012-.1.061-.117h.321c.08,0,.092.025.092.111v4.134c0,.1-.025.112-.105.112h-.233c-.063-.007-.08-.019-.137-.087l-2.462-3.418v3.387c0,.068-.005.1-.055.111-.014.007-.217.007-.321.007-.087,0-.1-.032-.1-.118v-4.121c0-.1.017-.117.117-.117h.358c.081,0,.086,0,.147.092Z" transform="translate(-218.502 -1910.361)" fill="#b98f3d"/>
        <path id="Path_42" data-name="Path 42" d="M355.725,1976.48v1.691h1.666c.079,0,.117,0,.117.1v.2c0,.093-.043.1-.117.1h-2.147c-.092,0-.124-.007-.124-.111v-4.1c0-.105.02-.148.124-.148h2.147c.067,0,.117.006.117.092a1.989,1.989,0,0,1-.007.234c-.005.056-.031.068-.11.068h-1.666v1.486h1.407c.069,0,.117,0,.117.094s0,.223-.006.24c-.012.051-.043.056-.111.056Z" transform="translate(-342.716 -1910.361)" fill="#b98f3d"/>
        <path id="Path_43" data-name="Path 43" d="M447.922,1975.107c.359.005.4.005.494,0a.893.893,0,0,0,.92-.907c0-.9-.754-.9-1.019-.9a2.407,2.407,0,0,0-.4.031Zm-.592-1.869c0-.13.019-.16.1-.191a4.543,4.543,0,0,1,.957-.087,1.843,1.843,0,0,1,1.19.309,1.063,1.063,0,0,1,.371.857,1.234,1.234,0,0,1-1.08,1.185l1.253,1.875a.228.228,0,0,1,.043.111c0,.062-.061.062-.1.062h-.443c-.118,0-.118,0-.179-.1l-1.031-1.646a.4.4,0,0,0-.32-.227c-.173,0-.167.154-.167.222v1.621c0,.106-.024.13-.116.13h-.358c-.087,0-.118-.006-.118-.1Z" transform="translate(-431.705 -1909.154)" fill="#b98f3d"/>
        <path id="Path_44" data-name="Path 44" d="M1370.452,1976.377c.357.007.4.007.494,0a.891.891,0,0,0,.918-.906c0-.894-.753-.894-1.018-.894a2.244,2.244,0,0,0-.4.031Zm-.592-1.869c0-.13.017-.16.1-.191a4.53,4.53,0,0,1,.957-.087,1.851,1.851,0,0,1,1.19.309,1.064,1.064,0,0,1,.369.858,1.234,1.234,0,0,1-1.079,1.183l1.253,1.876a.235.235,0,0,1,.043.111c0,.062-.063.062-.1.062h-.444c-.116,0-.116,0-.18-.1l-1.029-1.648a.406.406,0,0,0-.32-.227c-.174,0-.167.154-.167.222v1.621c0,.106-.026.13-.118.13h-.357c-.086,0-.117-.006-.117-.1Z" transform="translate(-1322.012 -1910.38)" fill="#b98f3d"/>
        <path id="Path_45" data-name="Path 45" d="M1960.722,1977.637c.359.006.4.006.494,0a.893.893,0,0,0,.92-.906c0-.894-.754-.894-1.019-.894a2.233,2.233,0,0,0-.4.031Zm-.592-1.869c0-.13.019-.16.1-.191a4.563,4.563,0,0,1,.957-.087,1.841,1.841,0,0,1,1.19.309,1.063,1.063,0,0,1,.371.858,1.233,1.233,0,0,1-1.08,1.183l1.253,1.876a.23.23,0,0,1,.043.111c0,.062-.062.062-.1.062h-.443c-.118,0-.118,0-.179-.1l-1.031-1.646a.4.4,0,0,0-.32-.228c-.173,0-.167.154-.167.223v1.621c0,.105-.024.13-.116.13h-.358c-.087,0-.118-.006-.118-.1Z" transform="translate(-1891.664 -1911.596)" fill="#b98f3d"/>
        <path id="Path_46" data-name="Path 46" d="M537.249,1976.518l-.53-1.474-.536,1.474Zm.13.352h-1.327l-.6,1.616c-.037.1-.055.1-.135.1h-.29c-.043,0-.1,0-.1-.056l.031-.1,1.6-4.11c.031-.078.049-.091.118-.091h.265c.043.005.055.012.086.079l1.6,4.122a.309.309,0,0,1,.026.1c0,.056-.038.056-.087.056h-.426c-.1,0-.117,0-.154-.092Z" transform="translate(-516.245 -1910.38)" fill="#b98f3d"/>
        <path id="Path_47" data-name="Path 47" d="M784.63,1978.338l-.53-1.474-.537,1.474Zm.13.352h-1.327l-.6,1.616c-.037.1-.056.1-.135.1h-.291c-.042,0-.1,0-.1-.056l.031-.1,1.6-4.109c.031-.08.049-.092.116-.092h.266c.043.005.055.012.085.08l1.6,4.121a.3.3,0,0,1,.026.1c0,.056-.038.056-.087.056h-.426c-.1,0-.117,0-.154-.092Z" transform="translate(-754.984 -1912.137)" fill="#b98f3d"/>
        <path id="Path_48" data-name="Path 48" d="M657.57,1977.985h1.622c.093,0,.106.031.106.111v.241c-.013.054-.056.054-.111.054h-2.123c-.092,0-.1-.037-.1-.1v-4.146c0-.1.031-.1.1-.111h.4c.092,0,.105.024.111.111Z" transform="translate(-634.013 -1910.187)" fill="#b98f3d"/>
        <path id="Path_49" data-name="Path 49" d="M1014.854,1976.03h-3.3c-.055,0-.1,0-.111.056v.24c0,.081.012.111.1.111h1.368v3.843c0,.1.031.1.1.111h.4c.074-.006.1-.012.1-.111v-3.843h1.337c.093,0,.1-.031.1-.111v-.24C1014.953,1976.03,1014.91,1976.03,1014.854,1976.03Z" transform="translate(-976.111 -1912.117)" fill="#b98f3d"/>
        <path id="Path_50" data-name="Path 50" d="M1499.8,1976.03h-3.3c-.056,0-.1,0-.111.056v.24c0,.081.012.111.1.111h1.368v3.843c0,.1.031.1.1.111h.4c.074-.006.1-.012.1-.111v-3.843h1.336c.094,0,.106-.031.106-.111v-.24C1499.9,1976.03,1499.858,1976.03,1499.8,1976.03Z" transform="translate(-1444.122 -1912.117)" fill="#b98f3d"/>
        <path id="Path_51" data-name="Path 51" d="M1130.8,1979.936c.119-.073.242-.136.367-.2v-3.6c-.007-.085-.019-.111-.111-.111h-.394c-.074.007-.1.012-.1.111v3.936C1130.639,1980.027,1130.72,1979.98,1130.8,1979.936Z" transform="translate(-1091.07 -1912.117)" fill="#b98f3d"/>
        <path id="Path_52" data-name="Path 52" d="M1130.935,1985.19c-.119.072-.242.136-.365.2v3.6c.005.085.017.111.11.111h.4c.075-.006.105-.011.105-.111v-3.936C1131.1,1985.1,1131.018,1985.146,1130.935,1985.19Z" transform="translate(-1091.08 -1920.822)" fill="#b98f3d"/>
        <path id="Path_53" data-name="Path 53" d="M1208.354,1979.936c.12-.073.243-.136.366-.2v-3.6c-.006-.085-.018-.111-.111-.111h-.393c-.075.007-.106.012-.106.111v3.936Q1208.23,1980,1208.354,1979.936Z" transform="translate(-1165.911 -1912.117)" fill="#b98f3d"/>
        <path id="Path_54" data-name="Path 54" d="M1208.5,1985.19c-.119.072-.241.136-.366.2v3.6c.006.085.018.111.111.111h.394c.075-.006.106-.011.106-.111v-3.936C1208.66,1985.1,1208.578,1985.146,1208.5,1985.19Z" transform="translate(-1165.931 -1920.822)" fill="#b98f3d"/>
        <path id="Path_55" data-name="Path 55" d="M1145.541,2041.85h-2.124a.466.466,0,0,0,.008.3h2.132c.233,0,.264-.024.264-.083v-.181C1145.79,2041.85,1145.679,2041.85,1145.541,2041.85Z" transform="translate(-1103.457 -1975.638)" fill="#b98f3d"/>
        <path id="Path_56" data-name="Path 56" d="M1465.482,1980.465c0,.111-.031.123-.123.123h-.371c-.074,0-.118-.012-.118-.123v-4.108c0-.1.026-.13.118-.123h.371c.086,0,.123.012.123.111Z" transform="translate(-1413.703 -1912.313)" fill="#b98f3d"/>
        <path id="Path_57" data-name="Path 57" d="M1640.78,2043.167c0,.111-.031.123-.123.123h-.371c-.074,0-.117-.012-.117-.123v-1.839c0-.1.024-.13.117-.123h.371c.086,0,.123.012.123.111Z" transform="translate(-1582.88 -1975.015)" fill="#b98f3d"/>
        <path id="Path_58" data-name="Path 58" d="M1750.885,1978.3v1.968c0,.118-.038.118-.123.118h-.352c-.1,0-.13,0-.13-.112v-4.11c0-.1.026-.135.111-.142h2.128c.087.006.118.006.118.087a2.093,2.093,0,0,1-.007.234c0,.043-.007.087-.111.081h-1.634v1.486h1.375c.087,0,.118.007.118.106a1.793,1.793,0,0,1-.007.215c-.005.062-.036.068-.111.068Z" transform="translate(-1689.144 -1912.108)" fill="#b98f3d"/>
        <path id="Path_59" data-name="Path 59" d="M1821.9,1973.769a1.166,1.166,0,0,0-.568.154,1.866,1.866,0,0,0-.752,1.715,2.921,2.921,0,0,0,.062.647,1.375,1.375,0,0,0,1.27,1.246,1.226,1.226,0,0,0,1.019-.591,2.487,2.487,0,0,0,.3-1.376C1823.2,1974.108,1822.366,1973.769,1821.9,1973.769Zm.019,4.177a2.294,2.294,0,0,1,.005-4.546,2.038,2.038,0,0,1,1.951,2.146A2.1,2.1,0,0,1,1821.921,1977.946Z" transform="translate(-1756.371 -1909.579)" fill="#b98f3d"/>
        <path id="Path_60" data-name="Path 60" d="M1243.311,1973.889a1.168,1.168,0,0,0-.568.154,1.864,1.864,0,0,0-.752,1.715,3,3,0,0,0,.062.648,1.378,1.378,0,0,0,1.27,1.246,1.22,1.22,0,0,0,1.019-.592,2.493,2.493,0,0,0,.3-1.376C1244.607,1974.228,1243.774,1973.889,1243.311,1973.889Zm.018,4.177a2.294,2.294,0,0,1,.007-4.546,2.036,2.036,0,0,1,1.949,2.146A2.1,2.1,0,0,1,1243.329,1978.066Z" transform="translate(-1197.99 -1909.695)" fill="#b98f3d"/>
        <path id="Path_61" data-name="Path 61" d="M897.94,1978.9h0v-2.783c0-.064-.031-.068-.1-.072h-.4c-.074,0-.1.008-.1.072v2.622l-.005,0c0,.022,0,.044,0,.067a1.462,1.462,0,0,1-.253.949,1.1,1.1,0,0,1-1.923-.451,1.735,1.735,0,0,1-.051-.447h0v-.009h0v-2.731c0-.064-.032-.068-.105-.072h-.4c-.074,0-.1.008-.1.072v2.783s0,0,0,0,0,.012,0,.019a1.726,1.726,0,0,0,3.45-.021Z" transform="translate(-863.246 -1912.127)" fill="#b98f3d"/>
        <path id="Path_62" data-name="Path 62" d="M2087.468,1978.336l-.532-1.479-.539,1.479Zm.13.353h-1.331l-.6,1.623c-.038.1-.055.1-.137.1h-.291c-.042,0-.1,0-.1-.055l.031-.1,1.6-4.123c.031-.08.049-.092.118-.092h.266c.043.007.055.012.086.08l1.61,4.135a.323.323,0,0,1,.024.1c0,.055-.037.055-.087.055h-.427c-.1,0-.116,0-.154-.093Z" transform="translate(-2012.308 -1912.127)" fill="#b98f3d"/>
        <path id="Path_63" data-name="Path 63" d="M2183.812,1977.2l-1,3.065c-.031.092-.031.1-.123.1-.2,0-.224,0-.261-.1l-1.2-4.086a.323.323,0,0,1-.024-.106c0-.062.049-.08.1-.08h.391c.1-.005.116.012.142.123l.849,3.151,1.026-3.131c.043-.131.05-.144.1-.144h.141c.037,0,.044.019.075.111l1.066,3.164.871-3.157c.026-.093.044-.118.131-.118h.321c.031.007.069.012.069.068a.347.347,0,0,1-.026.118l-1.2,4.086c-.025.08-.037.1-.106.1h-.178c-.044-.007-.063-.025-.087-.094Z" transform="translate(-2105.012 -1912.085)" fill="#b98f3d"/>
        <path id="Path_64" data-name="Path 64" d="M2341.91,1974.27a1.255,1.255,0,0,0-1.009-.551,1.3,1.3,0,0,0-1.052.582,2.237,2.237,0,0,0-.34,1.312c0,1.319.7,1.925,1.392,1.925a1.281,1.281,0,0,0,1.071-.612,2.763,2.763,0,0,0-.062-2.656Zm-.495,3.584a1.131,1.131,0,0,0,.446.67,2.749,2.749,0,0,0,1.064.483c.161.036.217.048.217.142,0,.031,0,.123-.154.123a4.184,4.184,0,0,1-.837-.167,2.382,2.382,0,0,1-1.467-1.206,2.276,2.276,0,1,1,2.241-2.265,2.137,2.137,0,0,1-1.51,2.216v.005Z" transform="translate(-2257.175 -1909.541)" fill="#b98f3d"/>
        <path id="Path_65" data-name="Path 65" d="M2464.017,1978.336l-.533-1.479-.538,1.479Zm.13.353h-1.331l-.6,1.623c-.038.1-.055.1-.135.1h-.292c-.043,0-.1,0-.1-.055l.032-.1,1.6-4.123c.031-.08.049-.092.118-.092h.267c.042.007.056.012.085.08l1.61,4.135a.3.3,0,0,1,.024.1c0,.055-.037.055-.087.055h-.427c-.1,0-.116,0-.154-.093Z" transform="translate(-2375.705 -1912.127)" fill="#b98f3d"/>
        <path id="Path_66" data-name="Path 66" d="M2584.746,1978.153v1.974c0,.118-.038.118-.124.118h-.354c-.1,0-.13,0-.13-.111v-4.123c0-.1.024-.137.111-.142h2.135c.087.005.118.005.118.085s0,.212-.006.236c0,.044-.006.088-.113.081h-1.639v1.492h1.38c.087,0,.117.006.117.1a1.947,1.947,0,0,1-.006.217c-.006.063-.038.068-.111.068Z" transform="translate(-2493.878 -1911.963)" fill="#b98f3d"/>
        <path id="Path_67" data-name="Path 67" d="M1609.306,1976.08l-.794,2.066-.9-1.993c-.024-.112-.043-.13-.142-.125h-.39c-.056,0-.106.019-.106.081a.3.3,0,0,0,.026.105l1.246,2.929c.038.1.063.1.261.1.092,0,.092-.006.123-.1l1.1-3.021a.066.066,0,0,0-.064-.087h-.3A.065.065,0,0,0,1609.306,1976.08Z" transform="translate(-1550.849 -1912.115)" fill="#b98f3d"/>
      </g>
    </g>
  </g>
</svg>
