<svg xmlns="http://www.w3.org/2000/svg" width="184.51" height="254.993" viewBox="0 0 184.51 254.993"><g transform="translate(-111.473)"><path d="M824.059,27.415C801.3,18.967,782.574,8.918,776.482,0h-.008c-6.092,8.918-24.816,18.967-47.569,27.415-26.815,9.962-44.678,24.775-44.678,64.7V162.88c0,39.923,17.863,54.736,44.678,64.7,22.753,8.449,41.477,18.5,47.569,27.416.008,0,.008,0,.008,0,6.092-8.917,24.82-18.966,47.577-27.416,26.811-9.962,44.678-24.775,44.678-64.7V92.115c0-27.228-8.31-42.777-22.244-53.179-6.287-4.694-13.909-8.353-22.434-11.521" transform="translate(-572.754)" fill="#dbebe5"/><path d="M788.35,253.995c-9.981-7.348-24.555-14.592-43.584-21.641-23.457-8.7-36.172-19.616-36.172-52.363V107.873c0-32.747,12.715-43.666,36.172-52.363,19.029-7.05,33.6-14.293,43.584-21.641,12.213,8.937,29.328,16.391,43.487,21.642,23.461,8.7,36.177,19.615,36.177,52.362v72.118c0,32.747-12.716,43.666-36.177,52.363C817.679,237.6,800.563,245.058,788.35,253.995Z" transform="translate(-584.576 -16.437)" fill="none" stroke="#d6bd81" stroke-miterlimit="10" stroke-width="1"/><g transform="translate(134.539 55.659)"><path d="M921.982,349.542a2.96,2.96,0,0,0-1.319-.264v-.009a2.936,2.936,0,0,0-.776.126c-.06.018-.109.045-.165.065a2.889,2.889,0,0,0-.482.213c0,.006-.016.006-.02.011a.012.012,0,0,0,.008,0c-.1.059-.2.159-.309.237-.084.044-.153.085-.153.085-.024.025-.04.063-.068.089a1.181,1.181,0,0,0-.124.1l.008.045a2.926,2.926,0,0,0-.511.654,5.453,5.453,0,0,1-3.084.443c-1.838-.091-5.095-.631-10.154-2.7-1.219-.5-2.489-1.063-3.8-1.692-.02.072-2.473,2.48-3.149,3.255a6.675,6.675,0,0,0-1.625,2.787s.877.432,1.158.568c7.251,3.481,13.391,5.27,18.028,5.27a13.916,13.916,0,0,0,3.2-.342,6.942,6.942,0,0,0,5.011-3.695c.354-.779,1.23-4.009-1.669-5.243" transform="translate(-810.183 -224.013)" fill="#fff"/><path d="M799.663,346.943q-1.966.944-3.8,1.692c-5.059,2.074-8.316,2.614-10.154,2.7a5.444,5.444,0,0,1-3.085-.445,2.938,2.938,0,0,0-.519-.653l.017-.046c-.044-.043-.089-.059-.125-.1s-.044-.064-.072-.089c0,0-.064-.041-.153-.084a3.841,3.841,0,0,0-.31-.237.039.039,0,0,0,.013,0s-.016-.007-.02-.01a2.9,2.9,0,0,0-.487-.213c-.052-.02-.108-.049-.161-.066a2.959,2.959,0,0,0-.78-.127v.011a2.912,2.912,0,0,0-1.315.262c-2.9,1.234-2.023,4.464-1.677,5.243a6.987,6.987,0,0,0,5.014,3.695,14.041,14.041,0,0,0,3.206.343c4.629,0,10.773-1.79,18.016-5.271.289-.136,1.162-.568,1.162-.568a6.584,6.584,0,0,0-1.624-2.787c-.672-.776-3.124-3.181-3.149-3.255" transform="translate(-752.137 -224.018)" fill="#fff"/><path d="M867.3,262.759l-.145-.057c-.261-.078-1.335-.43-2.3-.731a26.971,26.971,0,0,0-8.091-1.084c-.985,0-1.991.037-3.007.1A52.366,52.366,0,0,0,836.6,265.3c-7.266,3.1-14.123,7.874-22.315,14.073-5.811,4.389-11.1,8.607-16.057,12.312-4.963-3.705-10.255-7.923-16.058-12.312-8.2-6.2-15.048-10.976-22.315-14.073a52.391,52.391,0,0,0-17.159-4.312c-1.017-.063-2.023-.1-3.008-.1a27,27,0,0,0-8.1,1.084c-.969.3-2.039.654-2.3.731l-.153.057a.163.163,0,0,0,.077.313c2-.2,12.747,1.653,22.463,6.094a95.7,95.7,0,0,1,16.766,9.746,105.331,105.331,0,0,1,9.165,6.821q7.2,5.962,13.773,10.814c-.43.287-.868.589-1.3.864-3.583,2.32-6.969,4.311-10.114,5.963-3.816-4.131-3.177-6.8-3.177-6.8a2.56,2.56,0,0,0-2.827-.4c-2.3,1.852.029,4.651,2.964,7.581.241.239,1.673,1.675,1.689,1.664a32.764,32.764,0,0,1,3.016,3.444,4.634,4.634,0,0,1,.3.5,6.365,6.365,0,0,1-.1,7.016c1.882,2.15,2.98,1.194,2.98,1.194,2.136-1.294,1.786-4.659.025-7.878a154.531,154.531,0,0,0,13.387-8.292,153.274,153.274,0,0,0,13.387,8.292c-1.761,3.22-2.111,6.585.016,7.878,0,0,1.105.956,2.988-1.194a6.365,6.365,0,0,1-.1-7.016,5.591,5.591,0,0,1,.3-.5,33.306,33.306,0,0,1,3.02-3.444c.016.01,1.448-1.425,1.685-1.664,2.94-2.93,5.264-5.729,2.968-7.581a2.565,2.565,0,0,0-2.831.4s.639,2.669-3.177,6.8c-3.145-1.651-6.527-3.642-10.11-5.963-.43-.275-.868-.577-1.295-.864q6.557-4.852,13.765-10.814a106.45,106.45,0,0,1,9.173-6.821,95.693,95.693,0,0,1,16.766-9.746c9.715-4.44,20.464-6.3,22.463-6.094a.161.161,0,0,0,.068-.313" transform="translate(-729.035 -182.256)" fill="#fff"/><path d="M844.693,124.422a.178.178,0,0,1,.036-.354h.024a30.35,30.35,0,0,1,19.753,6.593.2.2,0,0,0,.314-.223c-2.98-7.442-11.353-12.934-21.157-12.865-.663.008-1.311.042-1.958.1a.18.18,0,0,1-.141-.322,18.784,18.784,0,0,1,9.667-3.268.178.178,0,0,0,.089-.328,16.784,16.784,0,0,0-8.477-2.246,16.326,16.326,0,0,0-8.694,2.5l-.294-.122a19.2,19.2,0,0,0-1.942-5.2c-.056-.106-.173-.3-.269-.46a.191.191,0,0,0-.169-.094.209.209,0,0,0-.173.094c-.092.16-.209.354-.269.46a19.344,19.344,0,0,0-1.942,5.2l-.294.122a16.3,16.3,0,0,0-8.69-2.5,16.8,16.8,0,0,0-8.476,2.246.177.177,0,0,0,.088.328,18.81,18.81,0,0,1,9.668,3.268.182.182,0,0,1-.145.322c-.647-.058-1.295-.091-1.958-.1-9.8-.069-18.173,5.423-21.153,12.865a.2.2,0,0,0,.314.223,30.354,30.354,0,0,1,19.757-6.593h.016a.178.178,0,0,1,.04.354c-10.379,2.1-18.523,8.967-20.7,17.78a.206.206,0,0,0,.342.2,41.266,41.266,0,0,1,16.246-9.42.192.192,0,0,1,.185.325c-6.326,5.858-10.263,13.42-10.387,22.155-.008.312-.008.627,0,.943,0,.188.3.275.382.109a40.844,40.844,0,0,1,11.417-13.727.2.2,0,0,1,.318.229,36.79,36.79,0,0,0-2.272,12.371,38.025,38.025,0,0,0,1.4,10.568.2.2,0,0,0,.386-.017,46.86,46.86,0,0,1,8.742-18.872c.117-.168.41-.043.358.15-.711,2.685-3.973,10.893-.744,19.749a.206.206,0,0,0,.39-.051c.121-1.789,5.936-18.572,7.154-18.572s7.033,16.783,7.154,18.572a.206.206,0,0,0,.39.051c3.225-8.857-.033-17.064-.752-19.749-.049-.193.245-.318.366-.15a46.967,46.967,0,0,1,8.743,18.872.2.2,0,0,0,.386.017,37.879,37.879,0,0,0,1.387-10.568,36.806,36.806,0,0,0-2.259-12.371.2.2,0,0,1,.318-.229,40.983,40.983,0,0,1,11.413,13.727c.08.166.382.079.382-.109.008-.317.008-.631,0-.943-.125-8.735-4.062-16.3-10.392-22.155a.194.194,0,0,1,.193-.325,41.277,41.277,0,0,1,16.243,9.42.207.207,0,0,0,.342-.2c-2.176-8.813-10.319-15.683-20.7-17.78" transform="translate(-762.287 -108.13)" fill="#fff"/><path d="M858.775,164.177h0s-4.963,41.8-4.963,58.92,4.963,18.084,4.963,18.084,4.954-.964,4.954-18.084-4.954-58.92-4.954-58.92" transform="translate(-789.588 -135.328)" fill="#fff"/></g></g></svg>