<svg xmlns="http://www.w3.org/2000/svg" width="112" height="112" viewBox="0 0 112 112"><g transform="translate(1189 -3831)"><path d="M56,0A56,56,0,1,1,0,56,56,56,0,0,1,56,0Z" transform="translate(-1189 3831)" fill="#dedede"/><path d="M-21.875-18.75a12.5,12.5,0,0,0,12.5-12.5,12.5,12.5,0,0,0-12.5-12.5,12.5,12.5,0,0,0-12.5,12.5A12.5,12.5,0,0,0-21.875-18.75Zm8.75,3.125h-1.631a17.018,17.018,0,0,1-7.119,1.563,17.052,17.052,0,0,1-7.119-1.562h-1.631A13.128,13.128,0,0,0-43.75-2.5V1.563A4.689,4.689,0,0,0-39.062,6.25H-4.687A4.689,4.689,0,0,0,0,1.563V-2.5A13.128,13.128,0,0,0-13.125-15.625Z" transform="translate(-1111 3906)" fill="#fff"/></g></svg>