<svg xmlns="http://www.w3.org/2000/svg" width="33.773" height="31.772" viewBox="0 0 33.773 31.772"><g transform="translate(-7108.227 -6212.228)"><path d="M15.142-22.251H6.967c-2.669,0-4.138-1.47-4.138-4.138v-1.464H.011a3.361,3.361,0,0,1-.392.023,3.365,3.365,0,0,1-2.4-.993,3.372,3.372,0,0,1-.97-2.79V-42.546A.751.751,0,0,1-3-43.3a.751.751,0,0,1,.751.751v10.932c0,1.584.676,2.26,2.26,2.26H2.829V-42.012c0-2.669,1.47-4.138,4.138-4.138H8.29v-1.84c0-1.584-.676-2.26-2.261-2.26H.011c-1.584,0-2.26.676-2.26,2.26A.751.751,0,0,1-3-47.24a.751.751,0,0,1-.75-.75,3.372,3.372,0,0,1,.97-2.79,3.368,3.368,0,0,1,2.4-.993,3.361,3.361,0,0,1,.392.022h6.02a3.331,3.331,0,0,1,.391-.022,3.417,3.417,0,0,1,2.4.993,3.378,3.378,0,0,1,.97,2.79v1.84h2.419v-1.84a3.372,3.372,0,0,1,.97-2.79,3.371,3.371,0,0,1,2.4-.993,3.361,3.361,0,0,1,.392.022h6.02a3.331,3.331,0,0,1,.391-.022,3.417,3.417,0,0,1,2.4.993,3.376,3.376,0,0,1,.971,2.79v12.925a7.984,7.984,0,0,0-1.5-.613V-47.99c0-1.584-.676-2.26-2.26-2.26H15.97c-1.584,0-2.26.676-2.26,2.26v1.84h1.432c2.659,0,4.124,1.47,4.124,4.138v6.494a7.987,7.987,0,0,0-1.5.734v-7.229c0-1.849-.785-2.638-2.624-2.638H6.967c-1.85,0-2.639.789-2.639,2.638v13.346c0,.021,0,.041,0,.063s0,.042,0,.064v2.15c0,1.849.789,2.638,2.639,2.638h3.282V-27.2a.751.751,0,0,1,.751-.75.751.751,0,0,1,.75.75v3.452h3.476a8.076,8.076,0,0,0,1.1,1.388A6,6,0,0,1,15.142-22.251ZM13.8-33.451H8.2a.751.751,0,0,1-.751-.75.751.751,0,0,1,.751-.751h5.6a.751.751,0,0,1,.75.751A.751.751,0,0,1,13.8-33.451Zm0-4.2H8.2a.751.751,0,0,1-.751-.75.751.751,0,0,1,.751-.75h5.6a.751.751,0,0,1,.75.75A.751.751,0,0,1,13.8-37.652Z" transform="translate(7112 6264)"/><path d="M4.227-35.773a8.009,8.009,0,0,1-8-8,8.009,8.009,0,0,1,8-8,8.009,8.009,0,0,1,8,8A8.009,8.009,0,0,1,4.227-35.773ZM.011-44.523a.751.751,0,0,0-.75.751.751.751,0,0,0,.75.75H3.478v3.467a.743.743,0,0,0,.22.532.756.756,0,0,0,.531.22.751.751,0,0,0,.751-.751v-3.467H8.446a.751.751,0,0,0,.75-.75.751.751,0,0,0-.75-.751H4.979v-3.467a.751.751,0,0,0-.751-.75.751.751,0,0,0-.75.75v3.466Z" transform="translate(7129.773 6279.773)"/></g></svg>