<svg xmlns="http://www.w3.org/2000/svg" xmlns:xlink="http://www.w3.org/1999/xlink" viewBox="0 0 96.099 134.667"><defs><clipPath id="a"><path d="M283,139.21h43.507v43.163H283Z" transform="translate(-283 -139.21)"/></clipPath><clipPath id="b"><path d="M207,320h84.17v83.257H207Z" transform="translate(-207 -320)"/></clipPath></defs><g transform="translate(-207 -139.21)"><g transform="translate(228.611 139.21)" clip-path="url(#a)"><path d="M305.244,150.279a10.475,10.475,0,1,1-10.48,10.48,10.494,10.494,0,0,1,10.48-10.48m0-11.067a21.541,21.541,0,1,0,21.547,21.547,21.573,21.573,0,0,0-21.547-21.547" transform="translate(-283.499 -139.211)"/></g><g transform="translate(207 190.619)" clip-path="url(#b)"><path d="M212.744,403.454c-3.208,0-5.523-3.222-5.534-6.266l-.154-36.907c0-22.067,19.444-40.006,43.336-40.006,17.508,0,33.631,10.181,40.14,25.321a5.538,5.538,0,1,1-10.181,4.361c-4.77-11.133-16.81-18.616-29.957-18.616-17.785,0-32.269,12.97-32.269,28.919l.154,36.884c.011,3.055-2.458,6.31-5.511,6.31Z" transform="translate(-207.04 -320.197)"/></g><path d="M391.141,516.026H344.213c-3.055,0-5.534-1.807-5.534-4.862s2.479-6.3,5.534-6.3H391.8c3.055,0,5.534,3.243,5.534,6.3s-2.479,4.862-6.192,4.862Z" transform="translate(-94.235 -261.679)"/><path d="M352.94,490.759l-16.291-17.275a5.49,5.49,0,0,1,0-7.581l16.291-17.276a5.527,5.527,0,1,1,8.034,7.592L348.28,469.688l12.694,13.479a5.579,5.579,0,0,1-.221,7.813c-2.863,2.863-6.74.93-7.813-.221Z" transform="translate(-91.695 -220.184)"/></g></svg>