<svg xmlns="http://www.w3.org/2000/svg"><path d="M15.143 5.048V2.524H13.46v.841h-1.682v-.841h-6.73v.841H3.365v-.841H1.683v2.524Zm0 1.683H1.683v8.413h13.46ZM13.46.841h1.683a1.683 1.683 0 0 1 1.683 1.683v12.619a1.682 1.682 0 0 1-1.683 1.683H1.683A1.683 1.683 0 0 1 0 15.143V2.524A1.683 1.683 0 0 1 1.683.841h1.682V0h1.683v.841h6.73V0h1.682ZM5.889 10.1H4.206V8.413h1.683Zm3.365 0H7.571V8.413h1.683Zm3.365 0h-1.683V8.413h1.683Zm-6.73 3.36H4.206v-1.682h1.683Zm3.365 0H7.571v-1.682h1.683Z" fill-rule="evenodd"/></svg>