<svg xmlns="http://www.w3.org/2000/svg" viewBox="0 0 35.029 25.45"><g transform="translate(-217.529 -466.927)"><g transform="translate(217 461.652)"><g transform="translate(-30.712 -89.975)"><path d="M274.745,107.528a5.293,5.293,0,0,1-3.861-1.791,7.031,7.031,0,0,1-1.827-4.294,5.8,5.8,0,0,1,1.462-4.435,5.935,5.935,0,0,1,8.442.012,5.788,5.788,0,0,1,1.472,4.424,7.046,7.046,0,0,1-1.828,4.293A5.289,5.289,0,0,1,274.745,107.528Zm0-10.778a4.2,4.2,0,0,0-3.128,1.279,4.324,4.324,0,0,0-1.064,3.307c.183,2.587,2.064,4.692,4.192,4.692s4.005-2.105,4.192-4.693a4.306,4.306,0,0,0-1.074-3.295A4.189,4.189,0,0,0,274.745,96.75Z" transform="translate(-220.001 0)"/><path d="M202.781,303.25a13.628,13.628,0,0,1,7.153,1.884,9.37,9.37,0,0,1,4.319,5.828,1.817,1.817,0,0,1-.316,1.546,1.627,1.627,0,0,1-1.29.624H192.915a1.629,1.629,0,0,1-1.293-.627,1.813,1.813,0,0,1-.312-1.547,9.425,9.425,0,0,1,4.316-5.8A13.736,13.736,0,0,1,202.781,303.25Zm9.867,8.383a.124.124,0,0,0,.11-.049.312.312,0,0,0,.039-.263c-1.189-4.849-6.138-6.57-10.016-6.57s-8.807,1.721-10.015,6.572a.307.307,0,0,0,.038.26.126.126,0,0,0,.111.05Z" transform="translate(-148.038 -192.432)" /><path d="M97.813,127.25a4.692,4.692,0,0,1,3.484,1.472,4.8,4.8,0,0,1,1.231,3.668c-.2,2.78-2.315,5.042-4.715,5.042S93.3,135.17,93.1,132.389a4.815,4.815,0,0,1,1.223-3.677A4.7,4.7,0,0,1,97.813,127.25Zm0,8.682c1.6,0,3.076-1.671,3.219-3.649a3.319,3.319,0,0,0-.833-2.539,3.381,3.381,0,0,0-4.78-.009,3.333,3.333,0,0,0-.824,2.548C94.735,134.261,96.209,135.932,97.813,135.932Z" transform="translate(-57.215 -29.605)" /><path d="M41.122,301.995h-8.4a1.451,1.451,0,0,1-1.151-.558,1.6,1.6,0,0,1-.278-1.364,7.678,7.678,0,0,1,3.516-4.722,12,12,0,0,1,10.521-.626l-.625,1.364a9.7,9.7,0,0,0-4.1-.789c-3.032,0-6.909,1.345-7.853,5.135a.137.137,0,0,0,0,.06h8.38Z" transform="translate(0 -183.69)" /></g></g></g></svg>