<svg xmlns="http://www.w3.org/2000/svg" viewBox="0 0 28.564 24.681"><g transform="translate(-220.718 -467.312)"><g transform="translate(217 461.652)"><g transform="translate(19520.027 4839.622)"><path d="M3,.75H0A.75.75,0,0,1-.75,0,.75.75,0,0,1,0-.75H3A.75.75,0,0,1,3.75,0,.75.75,0,0,1,3,.75Z" transform="translate(-19512.527 -4813.001)"/><path d="M2-.75H7.412A2.753,2.753,0,0,1,10.162,2V12.858a2.753,2.753,0,0,1-2.75,2.75H2a2.753,2.753,0,0,1-2.75-2.75V2A2.753,2.753,0,0,1,2-.75ZM7.412,14.108a1.251,1.251,0,0,0,1.25-1.25V2A1.251,1.251,0,0,0,7.412.75H2A1.251,1.251,0,0,0,.75,2V12.858A1.251,1.251,0,0,0,2,14.108Z" transform="translate(-19515.559 -4824.89)" /><path d="M-.749,3.622V0H.75V3.622Z" transform="translate(-19498.631 -4813.653)" /><path d="M6.517.75H0V-.75H6.517Z" transform="translate(-19502.977 -4810.032)" /><path d="M965.9,247.521H952.868v-1.5H965.9a.7.7,0,0,0,.7-.7V233.007h1.5v12.315A2.2,2.2,0,0,1,965.9,247.521Z" transform="translate(-20455.844 -5060.425)"/><path d="M931.191,226.858h-1.5v-3.622a2.2,2.2,0,0,1,2.2-2.2h11.379v1.5H931.889a.7.7,0,0,0-.7.7Z" transform="translate(-20445 -5055)"/><path d="M3.207-.75a.75.75,0,0,1,.672.416l3.38,6.8A.75.75,0,0,1,6.3,7.49L3.214,6.2.314,7.54a.75.75,0,0,1-.846-.152.75.75,0,0,1-.148-.847L2.528-.318A.75.75,0,0,1,3.2-.75ZM5.019,5.33l-1.792-3.6L1.548,5.318,2.884,4.7a.75.75,0,0,1,.6-.011Z" transform="matrix(0.883, -0.469, 0.469, 0.883, -19500.816, -4828.678)" /><path d="M2.4,4.45l-3-4L.6-.45l3,4Z" transform="translate(-19495.527 -4825.001)"/></g></g></g></svg>