<?xml version="1.0" ?><!DOCTYPE svg  PUBLIC '-//W3C//DTD SVG 1.0//EN'  'http://www.w3.org/TR/2001/REC-SVG-20010904/DTD/svg10.dtd'><svg enable-background="new 0 0 91.8 92.6" id="Layer_1" version="1.0" viewBox="0 0 91.8 92.6" xml:space="preserve" xmlns="http://www.w3.org/2000/svg" xmlns:xlink="http://www.w3.org/1999/xlink"><path d="M45.9,3.6c-23.5,0-42.5,19-42.5,42.5c0,23.5,19,42.5,42.5,42.5c23.5,0,42.5-19,42.5-42.5  C88.4,22.7,69.4,3.6,45.9,3.6z M45.6,80.1h-0.1c-3.2,0-5.7-2.4-5.7-5.9c0-3.2,2.5-5.9,5.7-5.9c3.2,0,5.7,2.6,5.7,5.9  C51.1,77.8,48.6,80.1,45.6,80.1z M53.8,27.1c-1.3,0-5.3-5.7-11.6-5.7c-3.6,0-5.6,1.8-5.6,5c0,3.6,6,7.4,9.9,10.1  c6.3,4.6,8.4,7.6,8.4,11.1c0,5.9-7.2,11.1-11.2,12.6L42,57.9c2.8-2.5,4.2-4.4,4.2-7.4c0-4.5-7.7-8.7-10.9-11.1  c-3.6-2.8-4.9-5.3-4.9-8.8c0-8,7.8-15.6,16.1-15.6h0.1c1.7,0,6.3,1.1,9.4,3.8c1.3,1.3,2.1,2.2,2.1,3.8  C58.2,24.9,55.3,27.1,53.8,27.1z" fill="#1E1E1E"/></svg>