<svg xmlns="http://www.w3.org/2000/svg" width="60" height="60" viewBox="0 0 60 60"><g transform="translate(-838 -638)"><circle cx="30" cy="30" r="30" transform="translate(838 638)" fill="#d6bd81"/><ellipse cx="26" cy="26.5" rx="26" ry="26.5" transform="translate(842 642)" fill="#fff"/><g transform="translate(850.455 598.631)"><g transform="translate(0 59.369)"><g transform="translate(0)"><path d="M34.479,67.3,26.752,59.57a.686.686,0,0,0-.969,0l-2.665,2.665-.533-.533a2.4,2.4,0,0,0-3.392,3.392l.533.533-2.18,2.18L14.88,65.142a.685.685,0,0,0-.969,0L12.893,66.16a1.028,1.028,0,1,1-1.454-1.454l1.018-1.018a.685.685,0,0,0,0-.969l-3.15-3.15a.686.686,0,0,0-.969,0L.611,67.3a2.1,2.1,0,0,0,0,2.961L16.065,85.71a2.1,2.1,0,0,0,2.961,0L34.479,70.257A2.1,2.1,0,0,0,34.479,67.3ZM3.126,70.833l1.5-1.5a.685.685,0,0,0-.969-.969l-1.5,1.5-.576-.576a.727.727,0,0,1,0-1.022l7.242-7.242L11,63.2l-.533.533a2.4,2.4,0,0,0,3.392,3.392L14.4,66.6l2.18,2.18-2.665,2.665a.685.685,0,0,0,0,.969l1.018,1.018c.025.025.048.05.069.076s.02.027.03.041.02.026.03.04.028.045.04.068l.01.018a1.042,1.042,0,0,1,0,.968l-.01.018c-.013.023-.026.046-.04.068s-.02.027-.029.04-.02.028-.031.041a1.032,1.032,0,0,1-1.523.076l-1.018-1.018a.686.686,0,0,0-.969,0L8.823,76.53Zm14.93,13.908a.727.727,0,0,1-1.022,0L9.792,77.5l2.18-2.18.533.533a2.4,2.4,0,0,0,3.392,0q.043-.043.084-.088L16,75.739c.019-.022.039-.044.057-.067l.02-.026c.018-.023.036-.046.054-.069l.016-.023c.018-.025.036-.05.052-.075l.012-.019c.017-.027.035-.054.051-.082l.009-.016c.017-.029.033-.058.049-.087l.007-.014q.023-.045.045-.091l.007-.016c.014-.03.027-.06.039-.09l.009-.023c.011-.028.022-.056.032-.084l.013-.038c.008-.023.015-.046.022-.07s.012-.044.018-.066.008-.028.012-.043a2.417,2.417,0,0,0,0-1.164c0-.015-.008-.03-.012-.045s-.011-.043-.018-.064-.015-.048-.023-.071l-.012-.037c-.01-.029-.021-.057-.032-.085l-.008-.022c-.012-.031-.026-.061-.04-.091l-.007-.015c-.014-.031-.03-.061-.045-.092l-.007-.013c-.016-.03-.032-.059-.049-.088l-.008-.015c-.017-.028-.034-.055-.052-.083l-.012-.018c-.017-.026-.035-.051-.053-.076l-.016-.022c-.018-.024-.036-.047-.054-.07l-.019-.025c-.019-.023-.038-.045-.058-.067l-.021-.025q-.041-.045-.084-.088l-.533-.533,2.18-2.18,2.665,2.665a.685.685,0,0,0,.969,0L22.2,71.393a1.028,1.028,0,0,1,1.454,1.454l-1.018,1.018a.685.685,0,0,0,0,.969L25.3,77.5ZM33.509,69.288,26.267,76.53l-2.18-2.18.533-.533a2.4,2.4,0,0,0-3.392-3.392l-.533.533-2.18-2.18,2.665-2.665a.685.685,0,0,0,0-.969l-1.018-1.018a1.028,1.028,0,0,1,1.454-1.454l1.018,1.018a.685.685,0,0,0,.969,0l2.665-2.665,5.7,5.7-1.5,1.5a.685.685,0,1,0,.969.969l1.5-1.5.576.576A.724.724,0,0,1,33.509,69.288Z" transform="translate(0 -59.369)" fill="#d6bd81"/></g></g><g transform="translate(28.856 69.416)"><g transform="translate(0 0)"><path d="M422.206,206.164a.685.685,0,0,0-.969,0l-.011.011a.685.685,0,1,0,.969.969l.011-.011A.685.685,0,0,0,422.206,206.164Z" transform="translate(-421.024 -205.963)" fill="#d6bd81"/></g></g><g transform="translate(4.852 66.755)"><g transform="translate(0 0)"><path d="M71.979,167.339a.685.685,0,0,0-.969,0l-.011.012a.685.685,0,0,0,.972.967l.011-.012A.685.685,0,0,0,71.979,167.339Z" transform="translate(-70.799 -167.14)" fill="#d6bd81"/></g></g></g></g></svg>