<svg xmlns="http://www.w3.org/2000/svg" width="60" height="60" viewBox="0 0 60 60"><g transform="translate(-1610 -638)"><circle cx="30" cy="30" r="30" transform="translate(1610 638)" fill="#c38044"/><ellipse cx="26" cy="26.5" rx="26" ry="26.5" transform="translate(1614 642)" fill="#fff"/><g transform="translate(1624.21 653.453)"><g transform="translate(14.861)"><path d="M241.091,30.093a.882.882,0,0,1,0-1.763,13.283,13.283,0,1,0,0-26.566.882.882,0,0,1,0-1.763A15.047,15.047,0,0,1,251.73,25.686,14.948,14.948,0,0,1,241.091,30.093Z" transform="translate(-240.209)" fill="#c38044"/></g><g transform="translate(14.861 5.312)"><path d="M248.173,108.074a.879.879,0,0,1-.623-.258l-7.082-7.082a.882.882,0,0,1-.258-.623V91.257a.882.882,0,0,1,1.763,0v8.488l6.824,6.824a.882.882,0,0,1-.623,1.5Z" transform="translate(-240.209 -90.375)" fill="#c38044"/></g><g transform="translate(0.789 0.459)"><path d="M153.931,10.066a.88.88,0,0,0,.327-.063s.317-.126.655-.232c.361-.113.788-.234.792-.235a.882.882,0,0,0-.479-1.7c-.018.005-.454.128-.839.249-.406.127-.769.272-.784.278a.882.882,0,0,0,.328,1.7Z" transform="translate(-144.099 -7.806)" fill="#c38044"/><path d="M81.488,44.127c-.015.011-.38.279-.7.526-.336.261-.625.524-.637.535a.882.882,0,0,0,1.187,1.3s.253-.229.532-.446c.3-.232.656-.495.66-.5a.882.882,0,1,0-1.043-1.422Z" transform="translate(-75.216 -41.832)" fill="#c38044"/><path d="M29.178,105.2a.882.882,0,0,0-1.221.254c-.01.016-.258.395-.47.738-.223.362-.4.709-.409.724a.882.882,0,0,0,1.568.806s.156-.3.342-.6c.2-.322.441-.693.444-.7A.882.882,0,0,0,29.178,105.2Z" transform="translate(-25.441 -99.344)" fill="#c38044"/><path d="M1.889,186.722a.9.9,0,0,0,.1.006.882.882,0,0,0,.875-.779s.04-.336.109-.686c.073-.371.171-.8.172-.808a.882.882,0,0,0-1.72-.389c0,.019-.1.46-.182.856-.082.417-.128.805-.13.821a.881.881,0,0,0,.773.978Z" transform="translate(-1.091 -173.06)" fill="#c38044"/><path d="M2.805,271.259s-.08-.328-.138-.68c-.061-.373-.122-.813-.122-.817A.882.882,0,0,0,.8,270c0,.019.064.467.129.865.069.419.162.8.166.815a.882.882,0,1,0,1.712-.421Z" transform="translate(-0.789 -253.648)" fill="#c38044"/><path d="M27.818,352.259c-.188-.328-.4-.719-.4-.723a.882.882,0,0,0-1.553.835c.009.017.224.415.424.765.212.369.432.692.441.705a.882.882,0,0,0,1.456-.994S27.994,352.566,27.818,352.259Z" transform="translate(-24.291 -330.897)" fill="#c38044"/><path d="M80.532,420.383s-.278-.2-.551-.423c-.291-.241-.625-.534-.628-.536a.882.882,0,0,0-1.162,1.326c.014.013.355.311.665.568.327.271.647.5.66.506a.882.882,0,0,0,1.016-1.441Z" transform="translate(-73.358 -395.025)" fill="#c38044"/><path d="M153.208,465.3s-.327-.086-.664-.2c-.357-.124-.772-.281-.776-.283a.882.882,0,1,0-.624,1.649c.018.007.441.167.822.3.4.139.779.239.8.243a.882.882,0,0,0,.447-1.706Z" transform="translate(-141.77 -437.903)" fill="#c38044"/></g></g></g></svg>