<svg xmlns="http://www.w3.org/2000/svg" xmlns:xlink="http://www.w3.org/1999/xlink" width="143.486" height="143.486" viewBox="0 0 143.486 143.486"><defs><filter id="a" x="0" y="0" width="143.486" height="143.486" filterUnits="userSpaceOnUse"><feOffset dy="2" input="SourceAlpha"/><feGaussianBlur stdDeviation="4" result="b"/><feFlood flood-color="#888" flood-opacity="0.122"/><feComposite operator="in" in2="b"/><feComposite in="SourceGraphic"/></filter></defs><g transform="translate(-1448.257 -1421.788)"><rect width="138.814" height="138.814" rx="69.407" transform="translate(1450.593 1422.124)" fill="#00846c"/><g transform="matrix(1, 0, 0, 1, 1448.26, 1421.79)" filter="url(#a)"><rect width="119.486" height="119.486" rx="59.743" transform="translate(12 10)" fill="#fff"/></g><g transform="translate(1053.223 0.239)"><g transform="translate(438.647 1474.985)"><path d="M463.461,293.307a3.372,3.372,0,0,1-.163.992l-15.275-16.43,15.438-12.008v27.446ZM418.1,296.646l15.479-16.5,5.867,4.434,5.613-4.462,15.733,16.522c-.245.057-42.447.057-42.692,0Zm-2.669-3.338V265.862l15.438,12.008L415.594,294.3a3.372,3.372,0,0,1-.163-.992Zm46.315-30.877-22.3,17.154-22.3-17.154ZM460.03,259H418.862A6.862,6.862,0,0,0,412,265.862v27.446a6.862,6.862,0,0,0,6.861,6.861H460.03a6.862,6.862,0,0,0,6.861-6.861V265.862A6.862,6.862,0,0,0,460.03,259Z" transform="translate(-414.093 -260.57)" fill="#00846c" fill-rule="evenodd"/></g><circle cx="9" cy="9" r="9" transform="translate(479 1468)" fill="#00846c"/><text transform="translate(488 1481)" fill="#fff" font-size="12" font-family="URWDINArabic-Bold, URW DIN Arabic" font-weight="700"><tspan x="-3.24" y="0">1</tspan></text></g></g></svg>