<svg xmlns="http://www.w3.org/2000/svg" xmlns:xlink="http://www.w3.org/1999/xlink" width="143.486" height="143.486" viewBox="0 0 143.486 143.486"><defs><filter id="a" x="0" y="0" width="143.486" height="143.486" filterUnits="userSpaceOnUse"><feOffset dy="2" input="SourceAlpha"/><feGaussianBlur stdDeviation="4" result="b"/><feFlood flood-color="#888" flood-opacity="0.122"/><feComposite operator="in" in2="b"/><feComposite in="SourceGraphic"/></filter></defs><g transform="translate(-1448.257 -1421.788)"><rect width="138.814" height="138.814" rx="69.407" transform="translate(1450.593 1422.124)" fill="#d6bd81"/><g transform="matrix(1, 0, 0, 1, 1448.26, 1421.79)" filter="url(#a)"><rect width="119.486" height="119.486" rx="59.743" transform="translate(12 10)" fill="#fff"/></g><g transform="translate(21701.859 6202.823)"><line x2="9.122" transform="translate(-20199.145 -4702.837)" fill="none" stroke="#d6bd81" stroke-linecap="round" stroke-linejoin="round" stroke-width="3.5"/><line x2="3.909" transform="translate(-20199.145 -4695.016)" fill="none" stroke="#d6bd81" stroke-linecap="round" stroke-linejoin="round" stroke-width="3.5"/><line x2="3.909" transform="translate(-20190.023 -4710.658)" fill="none" stroke="#d6bd81" stroke-linecap="round" stroke-linejoin="round" stroke-width="3.5"/><line x2="3.909" transform="translate(-20199.145 -4710.658)" fill="none" stroke="#d6bd81" stroke-linecap="round" stroke-linejoin="round" stroke-width="3.5"/><line x2="19.547" transform="translate(-20199.145 -4718.479)" fill="none" stroke="#d6bd81" stroke-linecap="round" stroke-linejoin="round" stroke-width="3.5"/><line x1="6.003" y1="6.025" transform="translate(-20157.766 -4731)" fill="none" stroke="#d6bd81" stroke-linecap="round" stroke-linejoin="round" stroke-width="3.5"/><path d="M263.568,351.986l-4.4,10.326,10.406-4.3" transform="translate(-20446.582 -5057.654)" fill="none" stroke="#d6bd81" stroke-linecap="round" stroke-linejoin="round" stroke-width="3.5"/><path d="M296.287,321.991l1.338,1.344a3.317,3.317,0,0,1,0,4.68l-27.72,27.811-2.319-2.326-3.684-3.7,27.721-27.811A3.289,3.289,0,0,1,296.287,321.991Z" transform="translate(-20446.916 -5055.47)" fill="none" stroke="#d6bd81" stroke-linecap="round" stroke-linejoin="round" stroke-width="3.5"/><path d="M242.341,329.095h7.819a1.3,1.3,0,0,0,1.3-1.3V319.97" transform="translate(-20445.395 -5055.396)" fill="none" stroke="#d6bd81" stroke-linecap="round" stroke-linejoin="round" stroke-width="3.5"/><path d="M279.735,350.859v18.249a2.606,2.606,0,0,1-2.606,2.607H239.05a2.292,2.292,0,0,1-2.316-2.267V329.1a2.767,2.767,0,0,1,.862-2.317l12.141-11.69a2.606,2.606,0,0,1,1.808-.729h25.875a2.292,2.292,0,0,1,2.316,2.267v6.858" transform="translate(-20445 -5055)" fill="none" stroke="#d6bd81" stroke-linecap="round" stroke-linejoin="round" stroke-width="3.5"/></g></g></svg>