<svg xmlns="http://www.w3.org/2000/svg" viewBox="0 0 42.393 29.632"><g transform="translate(-7179.213 -6190.25)"><g transform="translate(6031 5354.57)"><path d="M-5999.8-5329.307h-14.59a1.7,1.7,0,0,1-1.347-.65,1.9,1.9,0,0,1-.325-1.616,10.1,10.1,0,0,1,4.618-6.2,14.736,14.736,0,0,1,7.668-2.048,16.657,16.657,0,0,1,2.963.261,8.006,8.006,0,0,0-.771,1.4,14.72,14.72,0,0,0-2.192-.166c-4.178,0-9.522,1.863-10.831,7.114a.386.386,0,0,0,.051.328.194.194,0,0,0,.165.078H-6001a8.055,8.055,0,0,0,1.205,1.5Zm-18.63-2.575h-9.041a1.506,1.506,0,0,1-1.194-.578,1.671,1.671,0,0,1-.289-1.419,8.2,8.2,0,0,1,3.758-5.045,11.9,11.9,0,0,1,6.2-1.66,11.955,11.955,0,0,1,5.062.989.748.748,0,0,1,.392.422.742.742,0,0,1-.022.572.749.749,0,0,1-.681.438.74.74,0,0,1-.312-.068,10.5,10.5,0,0,0-4.438-.854c-3.283,0-7.48,1.458-8.5,5.566a.15.15,0,0,0,.018.135h9.05a.75.75,0,0,1,.749.75A.75.75,0,0,1-6018.427-5331.882Zm-.563-11.272c-2.556,0-4.806-2.41-5.016-5.372a5.125,5.125,0,0,1,1.3-3.913,5,5,0,0,1,3.716-1.556,4.991,4.991,0,0,1,3.706,1.566,5.112,5.112,0,0,1,1.309,3.9C-6014.189-5345.563-6016.438-5343.154-6018.99-5343.154Zm0-9.339a3.519,3.519,0,0,0-2.619,1.077,3.653,3.653,0,0,0-.9,2.784c.154,2.155,1.767,3.977,3.521,3.977s3.362-1.822,3.518-3.978a3.623,3.623,0,0,0-.911-2.773A3.506,3.506,0,0,0-6018.99-5352.493Zm15.216,9.017a5.634,5.634,0,0,1-4.111-1.908,7.512,7.512,0,0,1-1.95-4.586,6.187,6.187,0,0,1,1.558-4.729,6.06,6.06,0,0,1,4.5-1.872,6.047,6.047,0,0,1,4.495,1.885,6.173,6.173,0,0,1,1.568,4.716,7.525,7.525,0,0,1-1.952,4.584A5.634,5.634,0,0,1-6003.774-5343.477Zm0-11.593a4.576,4.576,0,0,0-3.406,1.394,4.709,4.709,0,0,0-1.159,3.6c.2,2.813,2.248,5.1,4.565,5.1s4.364-2.288,4.566-5.1a4.687,4.687,0,0,0-1.169-3.588A4.567,4.567,0,0,0-6003.774-5355.07Z" transform="translate(7177.212 6192.25)"/></g><path d="M8,16a8,8,0,1,1,8-8A8.009,8.009,0,0,1,8,16ZM3.784,7.25a.75.75,0,1,0,0,1.5H7.25v3.466a.75.75,0,0,0,1.5,0V8.75h3.467a.75.75,0,0,0,0-1.5H8.75V3.784a.75.75,0,1,0-1.5,0V7.25Z" transform="translate(7205.606 6203.882)"/></g></svg>